{"asset":{"version":"2.0","generator":"babylon.js glTF exporter for 3dsmax 2018 v20200527.2"},"scene":0,"scenes":[{"nodes":[0,34]}],"nodes":[{"children":[1],"translation":[0.0,0.280509531,0.0],"name":"erlou"},{"children":[2],"translation":[0.0,-0.149186581,-9.689331E-08],"name":"墙和柱子"},{"children":[3],"translation":[-0.005161313,0.0,0.00104489748],"name":"wall"},{"children":[4,5,6,7,8,9,10,11,12,13,14,15,16,17,18,19,20,21,22,23,24,25,26,27,28,29,30,31],"translation":[0.008312574,-0.0006666744,-6.29806527E-06],"name":"外墙"},{"mesh":0,"translation":[0.474074543,0.0,1.868186],"rotation":[5.3385083E-08,-0.7071067,0.7071068,5.33850759E-08],"name":"Plane018"},{"mesh":1,"translation":[0.00330638723,0.0,1.868186],"rotation":[5.338507E-08,-0.7071069,0.70710665,5.33850866E-08],"name":"Plane017"},{"mesh":2,"translation":[-0.470139235,0.0,1.868186],"rotation":[5.3385083E-08,-0.7071067,0.7071068,5.33850759E-08],"name":"Plane016"},{"mesh":3,"translation":[-0.7875453,0.00133344578,1.91242874],"rotation":[-0.7071069,0.70710665,5.338507E-08,-5.33850866E-08],"name":"Plane053"},{"mesh":4,"translation":[-1.110764,0.0,2.01818037],"rotation":[-0.7071069,0.70710665,5.338507E-08,-5.33850866E-08],"name":"Plane051"},{"mesh":5,"translation":[-1.5017271,0.0,2.079689],"rotation":[5.3385083E-08,-0.7071067,0.7071068,5.33850759E-08],"name":"Plane050"},{"mesh":6,"translation":[-1.8926903,0.0,2.22818923],"rotation":[-0.7071069,0.70710665,5.338507E-08,-5.33850866E-08],"name":"Plane049"},{"mesh":7,"translation":[-3.64764929,0.0,0.4984217],"rotation":[0.7071068,0.0,0.0,0.7071067],"name":"Plane046"},{"mesh":8,"translation":[-3.64840436,0.0,-0.4953277],"rotation":[0.7071068,0.0,0.0,0.7071067],"name":"Plane044"},{"mesh":9,"translation":[-3.80569863,0.0,-1.43600845],"rotation":[0.0,0.0,-0.70710665,0.7071069],"name":"Plane043"},{"mesh":10,"translation":[-2.84167314,0.0,-2.37622857],"rotation":[0.7071068,0.0,0.0,0.7071067],"name":"Plane042"},{"mesh":11,"translation":[-1.8776474,0.0,-2.22636342],"rotation":[-0.7071069,0.70710665,5.338507E-08,-5.33850866E-08],"name":"Plane041"},{"mesh":12,"translation":[-1.49440014,0.0,-2.07649732],"rotation":[0.7071068,0.0,0.0,0.7071067],"name":"Plane040"},{"mesh":13,"translation":[-1.11115277,0.0,-2.01474452],"rotation":[-0.7071069,0.70710665,5.338507E-08,-5.33850866E-08],"name":"Plane039"},{"mesh":14,"translation":[-0.785301864,0.0,-1.90153348],"rotation":[-0.7071069,0.70710665,5.338507E-08,-5.33850866E-08],"name":"Plane037"},{"mesh":15,"translation":[0.00176219863,0.000318003847,-1.850077],"rotation":[0.7071068,0.0,0.0,0.7071067],"name":"Plane036"},{"mesh":16,"translation":[0.7888268,0.0,-1.9012394],"rotation":[0.0,0.0,-0.70710665,0.7071069],"name":"Plane035"},{"mesh":17,"translation":[0.9512586,0.0,-1.95240176],"rotation":[0.7071068,0.0,0.0,0.7071067],"name":"Plane034"},{"mesh":18,"translation":[1.11369073,0.0,-2.02035427],"rotation":[0.0,0.0,-0.70710665,0.7071069],"name":"Plane033"},{"mesh":19,"translation":[1.49737453,0.0,-2.08830619],"rotation":[0.7071068,0.0,0.0,0.7071067],"name":"Plane032"},{"mesh":20,"translation":[1.88105917,0.0,-2.23224473],"rotation":[0.0,0.0,-0.70710665,0.7071069],"name":"Plane031"},{"mesh":21,"translation":[3.6448617,0.0,-0.494975775],"rotation":[5.3385083E-08,-0.7071067,0.7071068,5.33850759E-08],"name":"Plane028"},{"mesh":22,"translation":[3.64489841,0.0,0.498451144],"rotation":[0.7071068,0.0,0.0,0.7071067],"name":"Plane026"},{"mesh":23,"translation":[1.88108909,0.0,2.22678],"rotation":[0.0,0.0,-0.70710665,0.7071069],"name":"Plane023"},{"mesh":24,"translation":[1.114356,0.0,2.01662946],"rotation":[0.0,0.0,-0.70710665,0.7071069],"name":"Plane021"},{"mesh":25,"translation":[1.49772251,0.0,2.07688212],"rotation":[5.3385083E-08,-0.7071067,0.7071068,5.33850759E-08],"name":"Plane022"},{"mesh":26,"translation":[0.7888105,0.0,1.91228127],"rotation":[0.0,0.0,-0.70710665,0.7071069],"name":"Plane019"},{"children":[32,33],"translation":[-0.0145535693,0.0,0.00156296173],"name":"侧门"},{"mesh":27,"translation":[-3.22148037,0.0,-1.45097729E-05],"rotation":[0.0,0.0,-0.70710665,0.7071069],"name":"Plane1071"},{"mesh":28,"translation":[3.22148037,0.0,0.000156991387],"rotation":[-0.7071069,0.70710665,5.338507E-08,-5.33850866E-08],"name":"Plane1072"},{"name":"Default light"}],"meshes":[{"primitives":[{"attributes":{"POSITION":1,"NORMAL":2,"TEXCOORD_0":3},"indices":0,"material":0}],"name":"Plane018"},{"primitives":[{"attributes":{"POSITION":5,"NORMAL":6,"TEXCOORD_0":7},"indices":4,"material":0}],"name":"Plane017"},{"primitives":[{"attributes":{"POSITION":9,"NORMAL":10,"TEXCOORD_0":11},"indices":8,"material":0}],"name":"Plane016"},{"primitives":[{"attributes":{"POSITION":13,"NORMAL":14,"TEXCOORD_0":15},"indices":12,"material":1}],"name":"Plane053"},{"primitives":[{"attributes":{"POSITION":17,"NORMAL":18,"TEXCOORD_0":19},"indices":16,"material":1}],"name":"Plane051"},{"primitives":[{"attributes":{"POSITION":21,"NORMAL":22,"TEXCOORD_0":23},"indices":20,"material":1}],"name":"Plane050"},{"primitives":[{"attributes":{"POSITION":25,"NORMAL":26,"TEXCOORD_0":27},"indices":24,"material":1}],"name":"Plane049"},{"primitives":[{"attributes":{"POSITION":29,"NORMAL":30,"TEXCOORD_0":31},"indices":28,"material":1}],"name":"Plane046"},{"primitives":[{"attributes":{"POSITION":33,"NORMAL":34,"TEXCOORD_0":35},"indices":32,"material":1}],"name":"Plane044"},{"primitives":[{"attributes":{"POSITION":37,"NORMAL":38,"TEXCOORD_0":39},"indices":36,"material":2}],"name":"Plane043"},{"primitives":[{"attributes":{"POSITION":41,"NORMAL":42,"TEXCOORD_0":43},"indices":40,"material":3}],"name":"Plane042"},{"primitives":[{"attributes":{"POSITION":45,"NORMAL":46,"TEXCOORD_0":47},"indices":44,"material":1}],"name":"Plane041"},{"primitives":[{"attributes":{"POSITION":49,"NORMAL":50,"TEXCOORD_0":51},"indices":48,"material":1}],"name":"Plane040"},{"primitives":[{"attributes":{"POSITION":53,"NORMAL":54,"TEXCOORD_0":55},"indices":52,"material":1}],"name":"Plane039"},{"primitives":[{"attributes":{"POSITION":57,"NORMAL":58,"TEXCOORD_0":59},"indices":56,"material":1}],"name":"Plane037"},{"primitives":[{"attributes":{"POSITION":61,"NORMAL":62,"TEXCOORD_0":63},"indices":60,"material":1}],"name":"Plane036"},{"primitives":[{"attributes":{"POSITION":65,"NORMAL":66,"TEXCOORD_0":67},"indices":64,"material":1}],"name":"Plane035"},{"primitives":[{"attributes":{"POSITION":69,"NORMAL":70,"TEXCOORD_0":71},"indices":68,"material":4}],"name":"Plane034"},{"primitives":[{"attributes":{"POSITION":73,"NORMAL":74,"TEXCOORD_0":75},"indices":72,"material":1}],"name":"Plane033"},{"primitives":[{"attributes":{"POSITION":77,"NORMAL":78,"TEXCOORD_0":79},"indices":76,"material":1}],"name":"Plane032"},{"primitives":[{"attributes":{"POSITION":81,"NORMAL":82,"TEXCOORD_0":83},"indices":80,"material":1}],"name":"Plane031"},{"primitives":[{"attributes":{"POSITION":85,"NORMAL":86,"TEXCOORD_0":87},"indices":84,"material":1}],"name":"Plane028"},{"primitives":[{"attributes":{"POSITION":89,"NORMAL":90,"TEXCOORD_0":91},"indices":88,"material":1}],"name":"Plane026"},{"primitives":[{"attributes":{"POSITION":93,"NORMAL":94,"TEXCOORD_0":95},"indices":92,"material":1}],"name":"Plane023"},{"primitives":[{"attributes":{"POSITION":97,"NORMAL":98,"TEXCOORD_0":99},"indices":96,"material":1}],"name":"Plane021"},{"primitives":[{"attributes":{"POSITION":101,"NORMAL":102,"TEXCOORD_0":103},"indices":100,"material":1}],"name":"Plane022"},{"primitives":[{"attributes":{"POSITION":105,"NORMAL":106,"TEXCOORD_0":107},"indices":104,"material":1}],"name":"Plane019"},{"primitives":[{"attributes":{"POSITION":109,"NORMAL":110,"TEXCOORD_0":111},"indices":108,"material":5}],"name":"Plane1071"},{"primitives":[{"attributes":{"POSITION":113,"NORMAL":114,"TEXCOORD_0":115},"indices":112,"material":5}],"name":"Plane1072"}],"accessors":[{"bufferView":0,"componentType":5123,"count":6,"type":"SCALAR","name":"accessorIndices"},{"bufferView":1,"componentType":5126,"count":6,"max":[0.23173064,0.0,0.127],"min":[-0.3147277,-1.25322064E-08,-0.127],"type":"VEC3","name":"accessorPositions"},{"bufferView":1,"byteOffset":72,"componentType":5126,"count":6,"type":"VEC3","name":"accessorNormals"},{"bufferView":2,"componentType":5126,"count":6,"type":"VEC2","name":"accessorUVs"},{"bufferView":0,"byteOffset":12,"componentType":5123,"count":6,"type":"SCALAR","name":"accessorIndices"},{"bufferView":1,"byteOffset":144,"componentType":5126,"count":6,"max":[0.263126969,1.61696612E-08,0.127],"min":[-0.235536784,-1.20036558E-08,-0.127],"type":"VEC3","name":"accessorPositions"},{"bufferView":1,"byteOffset":216,"componentType":5126,"count":6,"type":"VEC3","name":"accessorNormals"},{"bufferView":2,"byteOffset":48,"componentType":5126,"count":6,"type":"VEC2","name":"accessorUVs"},{"bufferView":0,"byteOffset":24,"componentType":5123,"count":6,"type":"SCALAR","name":"accessorIndices"},{"bufferView":1,"byteOffset":288,"componentType":5126,"count":6,"max":[0.3174052,1.8181062E-08,0.127],"min":[-0.196997464,0.0,-0.127],"type":"VEC3","name":"accessorPositions"},{"bufferView":1,"byteOffset":360,"componentType":5126,"count":6,"type":"VEC3","name":"accessorNormals"},{"bufferView":2,"byteOffset":96,"componentType":5126,"count":6,"type":"VEC2","name":"accessorUVs"},{"bufferView":0,"byteOffset":36,"componentType":5123,"count":6,"type":"SCALAR","name":"accessorIndices"},{"bufferView":1,"byteOffset":432,"componentType":5126,"count":6,"max":[0.127,0.0,0.0442429371],"min":[-0.127,0.0,-0.0442429371],"type":"VEC3","name":"accessorPositions"},{"bufferView":1,"byteOffset":504,"componentType":5126,"count":6,"type":"VEC3","name":"accessorNormals"},{"bufferView":2,"byteOffset":144,"componentType":5126,"count":6,"type":"VEC2","name":"accessorUVs"},{"bufferView":0,"byteOffset":48,"componentType":5123,"count":6,"type":"SCALAR","name":"accessorIndices"},{"bufferView":1,"byteOffset":576,"componentType":5126,"count":6,"max":[0.127,0.0,0.0615084544],"min":[-0.127,0.0,-0.0615084544],"type":"VEC3","name":"accessorPositions"},{"bufferView":1,"byteOffset":648,"componentType":5126,"count":6,"type":"VEC3","name":"accessorNormals"},{"bufferView":2,"byteOffset":192,"componentType":5126,"count":6,"type":"VEC2","name":"accessorUVs"},{"bufferView":0,"byteOffset":60,"componentType":5123,"count":6,"type":"SCALAR","name":"accessorIndices"},{"bufferView":1,"byteOffset":720,"componentType":5126,"count":6,"max":[0.390963137,0.0,0.127],"min":[-0.390963137,0.0,-0.127],"type":"VEC3","name":"accessorPositions"},{"bufferView":1,"byteOffset":792,"componentType":5126,"count":6,"type":"VEC3","name":"accessorNormals"},{"bufferView":2,"byteOffset":240,"componentType":5126,"count":6,"type":"VEC2","name":"accessorUVs"},{"bufferView":0,"byteOffset":72,"componentType":5123,"count":6,"type":"SCALAR","name":"accessorIndices"},{"bufferView":1,"byteOffset":864,"componentType":5126,"count":6,"max":[0.127,0.0,0.148500144],"min":[-0.127,0.0,-0.148500144],"type":"VEC3","name":"accessorPositions"},{"bufferView":1,"byteOffset":936,"componentType":5126,"count":6,"type":"VEC3","name":"accessorNormals"},{"bufferView":2,"byteOffset":288,"componentType":5126,"count":6,"type":"VEC2","name":"accessorUVs"},{"bufferView":0,"byteOffset":84,"componentType":5123,"count":6,"type":"SCALAR","name":"accessorIndices"},{"bufferView":1,"byteOffset":1008,"componentType":5126,"count":6,"max":[0.41202572,0.0,0.127],"min":[-0.1565387,0.0,-0.127],"type":"VEC3","name":"accessorPositions"},{"bufferView":1,"byteOffset":1080,"componentType":5126,"count":6,"type":"VEC3","name":"accessorNormals"},{"bufferView":2,"byteOffset":336,"componentType":5126,"count":6,"type":"VEC2","name":"accessorUVs"},{"bufferView":0,"byteOffset":96,"componentType":5123,"count":6,"type":"SCALAR","name":"accessorIndices"},{"bufferView":1,"byteOffset":1152,"componentType":5126,"count":6,"max":[0.423102647,0.0,0.127],"min":[-0.157294467,0.0,-0.127],"type":"VEC3","name":"accessorPositions"},{"bufferView":1,"byteOffset":1224,"componentType":5126,"count":6,"type":"VEC3","name":"accessorNormals"},{"bufferView":2,"byteOffset":384,"componentType":5126,"count":6,"type":"VEC2","name":"accessorUVs"},{"bufferView":0,"byteOffset":108,"componentType":5123,"count":24,"type":"SCALAR","name":"accessorIndices"},{"bufferView":1,"byteOffset":1296,"componentType":5126,"count":24,"max":[0.1270024,7.611397,3.81269741],"min":[-0.127,0.0,-0.940680742],"type":"VEC3","name":"accessorPositions"},{"bufferView":1,"byteOffset":1584,"componentType":5126,"count":24,"type":"VEC3","name":"accessorNormals"},{"bufferView":2,"byteOffset":432,"componentType":5126,"count":24,"type":"VEC2","name":"accessorUVs"},{"bufferView":0,"byteOffset":156,"componentType":5123,"count":24,"type":"SCALAR","name":"accessorIndices"},{"bufferView":1,"byteOffset":1872,"componentType":5126,"count":24,"max":[6.647371,4.752918,0.127],"min":[-0.964025438,0.0,-0.127000779],"type":"VEC3","name":"accessorPositions"},{"bufferView":1,"byteOffset":2160,"componentType":5126,"count":24,"type":"VEC3","name":"accessorNormals"},{"bufferView":2,"byteOffset":624,"componentType":5126,"count":24,"type":"VEC2","name":"accessorUVs"},{"bufferView":0,"byteOffset":204,"componentType":5123,"count":6,"type":"SCALAR","name":"accessorIndices"},{"bufferView":1,"byteOffset":2448,"componentType":5126,"count":6,"max":[0.127,0.0,0.14986527],"min":[-0.127,0.0,-0.14986527],"type":"VEC3","name":"accessorPositions"},{"bufferView":1,"byteOffset":2520,"componentType":5126,"count":6,"type":"VEC3","name":"accessorNormals"},{"bufferView":2,"byteOffset":816,"componentType":5126,"count":6,"type":"VEC2","name":"accessorUVs"},{"bufferView":0,"byteOffset":216,"componentType":5123,"count":6,"type":"SCALAR","name":"accessorIndices"},{"bufferView":1,"byteOffset":2592,"componentType":5126,"count":6,"max":[0.383247346,0.0,0.127],"min":[-0.383247346,0.0,-0.127],"type":"VEC3","name":"accessorPositions"},{"bufferView":1,"byteOffset":2664,"componentType":5126,"count":6,"type":"VEC3","name":"accessorNormals"},{"bufferView":2,"byteOffset":864,"componentType":5126,"count":6,"type":"VEC2","name":"accessorUVs"},{"bufferView":0,"byteOffset":228,"componentType":5123,"count":6,"type":"SCALAR","name":"accessorIndices"},{"bufferView":1,"byteOffset":2736,"componentType":5126,"count":6,"max":[0.127,0.0,0.061752528],"min":[-0.127,0.0,-0.061752528],"type":"VEC3","name":"accessorPositions"},{"bufferView":1,"byteOffset":2808,"componentType":5126,"count":6,"type":"VEC3","name":"accessorNormals"},{"bufferView":2,"byteOffset":912,"componentType":5126,"count":6,"type":"VEC2","name":"accessorUVs"},{"bufferView":0,"byteOffset":240,"componentType":5123,"count":6,"type":"SCALAR","name":"accessorIndices"},{"bufferView":1,"byteOffset":2880,"componentType":5126,"count":6,"max":[0.127,0.0,0.0514579043],"min":[-0.127,0.0,-0.0514579043],"type":"VEC3","name":"accessorPositions"},{"bufferView":1,"byteOffset":2952,"componentType":5126,"count":6,"type":"VEC3","name":"accessorNormals"},{"bufferView":2,"byteOffset":960,"componentType":5126,"count":6,"type":"VEC2","name":"accessorUVs"},{"bufferView":0,"byteOffset":252,"componentType":5123,"count":6,"type":"SCALAR","name":"accessorIndices"},{"bufferView":1,"byteOffset":3024,"componentType":5126,"count":6,"max":[0.7870641,0.0,0.127],"min":[-0.7870641,0.0,-0.127],"type":"VEC3","name":"accessorPositions"},{"bufferView":1,"byteOffset":3096,"componentType":5126,"count":6,"type":"VEC3","name":"accessorNormals"},{"bufferView":2,"byteOffset":1008,"componentType":5126,"count":6,"type":"VEC2","name":"accessorUVs"},{"bufferView":0,"byteOffset":264,"componentType":5123,"count":6,"type":"SCALAR","name":"accessorIndices"},{"bufferView":1,"byteOffset":3168,"componentType":5126,"count":6,"max":[0.127,0.0,0.05116267],"min":[-0.127,0.0,-0.05116267],"type":"VEC3","name":"accessorPositions"},{"bufferView":1,"byteOffset":3240,"componentType":5126,"count":6,"type":"VEC3","name":"accessorNormals"},{"bufferView":2,"byteOffset":1056,"componentType":5126,"count":6,"type":"VEC2","name":"accessorUVs"},{"bufferView":0,"byteOffset":276,"componentType":5123,"count":24,"type":"SCALAR","name":"accessorIndices"},{"bufferView":1,"byteOffset":3312,"componentType":5126,"count":24,"max":[0.163097411,3.90907383,0.127],"min":[-2.06241155,-0.000589530042,-0.318008244],"type":"VEC3","name":"accessorPositions"},{"bufferView":1,"byteOffset":3600,"componentType":5126,"count":24,"type":"VEC3","name":"accessorNormals"},{"bufferView":2,"byteOffset":1104,"componentType":5126,"count":24,"type":"VEC2","name":"accessorUVs"},{"bufferView":0,"byteOffset":324,"componentType":5123,"count":6,"type":"SCALAR","name":"accessorIndices"},{"bufferView":1,"byteOffset":3888,"componentType":5126,"count":6,"max":[0.127,0.0,0.06795215],"min":[-0.127,0.0,-0.06795215],"type":"VEC3","name":"accessorPositions"},{"bufferView":1,"byteOffset":3960,"componentType":5126,"count":6,"type":"VEC3","name":"accessorNormals"},{"bufferView":2,"byteOffset":1296,"componentType":5126,"count":6,"type":"VEC2","name":"accessorUVs"},{"bufferView":0,"byteOffset":336,"componentType":5123,"count":6,"type":"SCALAR","name":"accessorIndices"},{"bufferView":1,"byteOffset":4032,"componentType":5126,"count":6,"max":[0.3836838,0.0,0.127],"min":[-0.3836838,0.0,-0.127],"type":"VEC3","name":"accessorPositions"},{"bufferView":1,"byteOffset":4104,"componentType":5126,"count":6,"type":"VEC3","name":"accessorNormals"},{"bufferView":2,"byteOffset":1344,"componentType":5126,"count":6,"type":"VEC2","name":"accessorUVs"},{"bufferView":0,"byteOffset":348,"componentType":5123,"count":6,"type":"SCALAR","name":"accessorIndices"},{"bufferView":1,"byteOffset":4176,"componentType":5126,"count":6,"max":[0.127,0.0,0.14393656],"min":[-0.127,0.0,-0.14393656],"type":"VEC3","name":"accessorPositions"},{"bufferView":1,"byteOffset":4248,"componentType":5126,"count":6,"type":"VEC3","name":"accessorNormals"},{"bufferView":2,"byteOffset":1392,"componentType":5126,"count":6,"type":"VEC2","name":"accessorUVs"},{"bufferView":0,"byteOffset":360,"componentType":5123,"count":6,"type":"SCALAR","name":"accessorIndices"},{"bufferView":1,"byteOffset":4320,"componentType":5126,"count":6,"max":[0.444753647,4.288133E-08,0.127],"min":[-0.160763443,0.0,-0.127],"type":"VEC3","name":"accessorPositions"},{"bufferView":1,"byteOffset":4392,"componentType":5126,"count":6,"type":"VEC3","name":"accessorNormals"},{"bufferView":2,"byteOffset":1440,"componentType":5126,"count":6,"type":"VEC2","name":"accessorUVs"},{"bufferView":0,"byteOffset":372,"componentType":5123,"count":6,"type":"SCALAR","name":"accessorIndices"},{"bufferView":1,"byteOffset":4464,"componentType":5126,"count":6,"max":[0.160800457,0.0,0.127],"min":[-0.442698956,0.0,-0.127],"type":"VEC3","name":"accessorPositions"},{"bufferView":1,"byteOffset":4536,"componentType":5126,"count":6,"type":"VEC3","name":"accessorNormals"},{"bufferView":2,"byteOffset":1488,"componentType":5126,"count":6,"type":"VEC2","name":"accessorUVs"},{"bufferView":0,"byteOffset":384,"componentType":5123,"count":6,"type":"SCALAR","name":"accessorIndices"},{"bufferView":1,"byteOffset":4608,"componentType":5126,"count":6,"max":[0.127,0.0,0.149897292],"min":[-0.127,0.0,-0.149897292],"type":"VEC3","name":"accessorPositions"},{"bufferView":1,"byteOffset":4680,"componentType":5126,"count":6,"type":"VEC3","name":"accessorNormals"},{"bufferView":2,"byteOffset":1536,"componentType":5126,"count":6,"type":"VEC2","name":"accessorUVs"},{"bufferView":0,"byteOffset":396,"componentType":5123,"count":6,"type":"SCALAR","name":"accessorIndices"},{"bufferView":1,"byteOffset":4752,"componentType":5126,"count":6,"max":[0.127,0.0,0.06025267],"min":[-0.127,0.0,-0.06025267],"type":"VEC3","name":"accessorPositions"},{"bufferView":1,"byteOffset":4824,"componentType":5126,"count":6,"type":"VEC3","name":"accessorNormals"},{"bufferView":2,"byteOffset":1584,"componentType":5126,"count":6,"type":"VEC2","name":"accessorUVs"},{"bufferView":0,"byteOffset":408,"componentType":5123,"count":6,"type":"SCALAR","name":"accessorIndices"},{"bufferView":1,"byteOffset":4896,"componentType":5126,"count":6,"max":[0.3833664,0.0,0.127],"min":[-0.3833664,0.0,-0.127],"type":"VEC3","name":"accessorPositions"},{"bufferView":1,"byteOffset":4968,"componentType":5126,"count":6,"type":"VEC3","name":"accessorNormals"},{"bufferView":2,"byteOffset":1632,"componentType":5126,"count":6,"type":"VEC2","name":"accessorUVs"},{"bufferView":0,"byteOffset":420,"componentType":5123,"count":6,"type":"SCALAR","name":"accessorIndices"},{"bufferView":1,"byteOffset":5040,"componentType":5126,"count":6,"max":[0.127,0.0,0.0440950319],"min":[-0.127,0.0,-0.0440950319],"type":"VEC3","name":"accessorPositions"},{"bufferView":1,"byteOffset":5112,"componentType":5126,"count":6,"type":"VEC3","name":"accessorNormals"},{"bufferView":2,"byteOffset":1680,"componentType":5126,"count":6,"type":"VEC2","name":"accessorUVs"},{"bufferView":0,"byteOffset":432,"componentType":5123,"count":6,"type":"SCALAR","name":"accessorIndices"},{"bufferView":1,"byteOffset":5184,"componentType":5126,"count":6,"max":[0.127,0.0,0.4968733],"min":[-0.127,0.0,-0.4968733],"type":"VEC3","name":"accessorPositions"},{"bufferView":1,"byteOffset":5256,"componentType":5126,"count":6,"type":"VEC3","name":"accessorNormals"},{"bufferView":2,"byteOffset":1728,"componentType":5126,"count":6,"type":"VEC2","name":"accessorUVs"},{"bufferView":0,"byteOffset":444,"componentType":5123,"count":6,"type":"SCALAR","name":"accessorIndices"},{"bufferView":1,"byteOffset":5328,"componentType":5126,"count":6,"max":[0.127,0.0,0.4967308],"min":[-0.127,0.0,-0.4967308],"type":"VEC3","name":"accessorPositions"},{"bufferView":1,"byteOffset":5400,"componentType":5126,"count":6,"type":"VEC3","name":"accessorNormals"},{"bufferView":2,"byteOffset":1776,"componentType":5126,"count":6,"type":"VEC2","name":"accessorUVs"}],"bufferViews":[{"buffer":0,"byteLength":456,"name":"bufferViewScalar"},{"buffer":0,"byteOffset":456,"byteLength":5472,"byteStride":12,"name":"bufferViewFloatVec3"},{"buffer":0,"byteOffset":5928,"byteLength":1824,"byteStride":8,"name":"bufferViewFloatVec2"}],"buffers":[{"uri":"2F_wall.bin","byteLength":7752}],"materials":[{"pbrMetallicRoughness":{"baseColorTexture":{"index":0},"metallicFactor":0.0,"roughnessFactor":0.450053632},"name":"Material #2100438946"},{"pbrMetallicRoughness":{"baseColorFactor":[0.5882353,0.5882353,0.5882353,1.0],"metallicFactor":0.0,"roughnessFactor":0.450053632},"name":"06 - Default"},{"pbrMetallicRoughness":{"baseColorTexture":{"index":1},"metallicFactor":0.0,"roughnessFactor":0.450053632},"name":"Material #2100438967"},{"pbrMetallicRoughness":{"baseColorTexture":{"index":2},"metallicFactor":0.0,"roughnessFactor":0.450053632},"name":"Material #2100438966"},{"pbrMetallicRoughness":{"baseColorTexture":{"index":3},"metallicFactor":0.0,"roughnessFactor":0.450053632},"name":"Material #2100438979"},{"pbrMetallicRoughness":{"baseColorTexture":{"index":4},"metallicFactor":0.0,"roughnessFactor":0.450053632},"name":"Material #2100438939"}],"textures":[{"sampler":0,"source":0,"name":"正门xx.jpg"},{"sampler":0,"source":1,"name":"阅览室窗户2.jpg"},{"sampler":0,"source":2,"name":"阅览室窗户.jpg"},{"sampler":0,"source":3,"name":"楼梯窗户.jpg"},{"sampler":0,"source":4,"name":"两侧门.jpg"}],"images":[{"uri":"./正门xx.jpg"},{"uri":"./阅览室窗户2.jpg"},{"uri":"./阅览室窗户.jpg"},{"uri":"./楼梯窗户.jpg"},{"uri":"./两侧门.jpg"}],"samplers":[{"magFilter":9729,"minFilter":9987}]}