{"asset":{"version":"2.0","generator":"babylon.js glTF exporter for 3dsmax 2018 v20200527.2"},"scene":0,"scenes":[{"nodes":[0,17]}],"nodes":[{"children":[1,2,3,4,5,6,7,8,9,10,11,12,13,14,15,16],"translation":[-0.00251128082,0.224331945,-0.00316114421],"name":"外墙"},{"mesh":0,"translation":[-2.83601046,-0.0936756656,-2.37202883],"rotation":[0.7071068,0.0,0.0,0.7071067],"name":"Plane042"},{"mesh":1,"translation":[-1.48873758,-0.0936756656,-2.07229757],"rotation":[0.7071068,0.0,0.0,0.7071067],"name":"Plane040"},{"mesh":2,"translation":[-1.10549021,-0.0936756656,-2.01054478],"rotation":[-0.7071069,0.70710665,5.338507E-08,-5.33850866E-08],"name":"Plane039"},{"mesh":3,"translation":[0.95692116,-0.0936756656,-1.948202],"rotation":[0.7071068,0.0,0.0,0.7071067],"name":"Plane034"},{"mesh":4,"translation":[-1.49606454,-0.0936756656,2.08388877],"rotation":[5.3385083E-08,-0.7071067,0.7071068,5.33850759E-08],"name":"Plane050"},{"mesh":5,"translation":[0.00742474059,-0.09335766,-1.84587717],"rotation":[0.7071068,0.0,0.0,0.7071067],"name":"Plane036"},{"mesh":6,"translation":[-0.7796393,-0.0936756656,-1.89733374],"rotation":[-0.7071069,0.70710665,5.338507E-08,-5.33850866E-08],"name":"Plane037"},{"mesh":7,"translation":[0.008968929,-0.0936756656,1.87238574],"rotation":[5.338507E-08,-0.7071069,0.70710665,5.33850866E-08],"name":"Plane017"},{"mesh":8,"translation":[0.479737073,-0.0936756656,1.87238574],"rotation":[5.3385083E-08,-0.7071067,0.7071068,5.33850759E-08],"name":"Plane018"},{"mesh":9,"translation":[-0.464476675,-0.0936756656,1.87238574],"rotation":[5.3385083E-08,-0.7071067,0.7071068,5.33850759E-08],"name":"Plane016"},{"mesh":10,"translation":[-0.781882763,-0.09234222,1.91662836],"rotation":[-0.7071069,0.70710665,5.338507E-08,-5.33850866E-08],"name":"Plane053"},{"mesh":11,"translation":[1.50338507,-0.0936756656,2.08108187],"rotation":[5.3385083E-08,-0.7071067,0.7071068,5.33850759E-08],"name":"Plane022"},{"mesh":12,"translation":[1.12001848,-0.0936756656,2.020829],"rotation":[0.0,0.0,-0.70710665,0.7071069],"name":"Plane021"},{"mesh":13,"translation":[1.11935329,-0.0936756656,-2.01615453],"rotation":[0.0,0.0,-0.70710665,0.7071069],"name":"Plane033"},{"mesh":14,"translation":[0.7944894,-0.0936756656,-1.89703965],"rotation":[0.0,0.0,-0.70710665,0.7071069],"name":"Plane035"},{"mesh":15,"translation":[1.503037,-0.0936756656,-2.08410645],"rotation":[0.7071068,0.0,0.0,0.7071067],"name":"Plane032"},{"name":"Default light"}],"meshes":[{"primitives":[{"attributes":{"POSITION":1,"NORMAL":2,"TEXCOORD_0":3},"indices":0,"material":0}],"name":"Plane042"},{"primitives":[{"attributes":{"POSITION":5,"NORMAL":6,"TEXCOORD_0":7},"indices":4,"material":1}],"name":"Plane040"},{"primitives":[{"attributes":{"POSITION":9,"NORMAL":10,"TEXCOORD_0":11},"indices":8,"material":1}],"name":"Plane039"},{"primitives":[{"attributes":{"POSITION":13,"NORMAL":14,"TEXCOORD_0":15},"indices":12,"material":2}],"name":"Plane034"},{"primitives":[{"attributes":{"POSITION":17,"NORMAL":18,"TEXCOORD_0":19},"indices":16,"material":1}],"name":"Plane050"},{"primitives":[{"attributes":{"POSITION":21,"NORMAL":22,"TEXCOORD_0":23},"indices":20,"material":1}],"name":"Plane036"},{"primitives":[{"attributes":{"POSITION":25,"NORMAL":26,"TEXCOORD_0":27},"indices":24,"material":1}],"name":"Plane037"},{"primitives":[{"attributes":{"POSITION":29,"NORMAL":30,"TEXCOORD_0":31},"indices":28,"material":3}],"name":"Plane017"},{"primitives":[{"attributes":{"POSITION":33,"NORMAL":34,"TEXCOORD_0":35},"indices":32,"material":3}],"name":"Plane018"},{"primitives":[{"attributes":{"POSITION":37,"NORMAL":38,"TEXCOORD_0":39},"indices":36,"material":4}],"name":"Plane016"},{"primitives":[{"attributes":{"POSITION":41,"NORMAL":42,"TEXCOORD_0":43},"indices":40,"material":1}],"name":"Plane053"},{"primitives":[{"attributes":{"POSITION":45,"NORMAL":46,"TEXCOORD_0":47},"indices":44,"material":1}],"name":"Plane022"},{"primitives":[{"attributes":{"POSITION":49,"NORMAL":50,"TEXCOORD_0":51},"indices":48,"material":1}],"name":"Plane021"},{"primitives":[{"attributes":{"POSITION":53,"NORMAL":54,"TEXCOORD_0":55},"indices":52,"material":1}],"name":"Plane033"},{"primitives":[{"attributes":{"POSITION":57,"NORMAL":58,"TEXCOORD_0":59},"indices":56,"material":1}],"name":"Plane035"},{"primitives":[{"attributes":{"POSITION":61,"NORMAL":62,"TEXCOORD_0":63},"indices":60,"material":1}],"name":"Plane032"}],"accessors":[{"bufferView":0,"componentType":5123,"count":48,"type":"SCALAR","name":"accessorIndices"},{"bufferView":1,"componentType":5126,"count":48,"max":[6.32612562,4.45613575,0.126999944],"min":[-0.6541058,0.287922382,-0.127000719],"type":"VEC3","name":"accessorPositions"},{"bufferView":1,"byteOffset":576,"componentType":5126,"count":48,"type":"VEC3","name":"accessorNormals"},{"bufferView":2,"componentType":5126,"count":48,"type":"VEC2","name":"accessorUVs"},{"bufferView":0,"byteOffset":96,"componentType":5123,"count":6,"type":"SCALAR","name":"accessorIndices"},{"bufferView":1,"byteOffset":1152,"componentType":5126,"count":6,"max":[0.383247346,0.0,0.127],"min":[-0.383247346,0.0,-0.127],"type":"VEC3","name":"accessorPositions"},{"bufferView":1,"byteOffset":1224,"componentType":5126,"count":6,"type":"VEC3","name":"accessorNormals"},{"bufferView":2,"byteOffset":384,"componentType":5126,"count":6,"type":"VEC2","name":"accessorUVs"},{"bufferView":0,"byteOffset":108,"componentType":5123,"count":6,"type":"SCALAR","name":"accessorIndices"},{"bufferView":1,"byteOffset":1296,"componentType":5126,"count":6,"max":[0.127,0.0,0.061752528],"min":[-0.127,0.0,-0.061752528],"type":"VEC3","name":"accessorPositions"},{"bufferView":1,"byteOffset":1368,"componentType":5126,"count":6,"type":"VEC3","name":"accessorNormals"},{"bufferView":2,"byteOffset":432,"componentType":5126,"count":6,"type":"VEC2","name":"accessorUVs"},{"bufferView":0,"byteOffset":120,"componentType":5123,"count":24,"type":"SCALAR","name":"accessorIndices"},{"bufferView":1,"byteOffset":1440,"componentType":5126,"count":24,"max":[0.163097411,3.90907383,0.127],"min":[-2.06241155,-0.000589530042,-0.318008244],"type":"VEC3","name":"accessorPositions"},{"bufferView":1,"byteOffset":1728,"componentType":5126,"count":24,"type":"VEC3","name":"accessorNormals"},{"bufferView":2,"byteOffset":480,"componentType":5126,"count":24,"type":"VEC2","name":"accessorUVs"},{"bufferView":0,"byteOffset":168,"componentType":5123,"count":6,"type":"SCALAR","name":"accessorIndices"},{"bufferView":1,"byteOffset":2016,"componentType":5126,"count":6,"max":[0.390963137,0.0,0.127],"min":[-0.390963137,0.0,-0.127],"type":"VEC3","name":"accessorPositions"},{"bufferView":1,"byteOffset":2088,"componentType":5126,"count":6,"type":"VEC3","name":"accessorNormals"},{"bufferView":2,"byteOffset":672,"componentType":5126,"count":6,"type":"VEC2","name":"accessorUVs"},{"bufferView":0,"byteOffset":180,"componentType":5123,"count":6,"type":"SCALAR","name":"accessorIndices"},{"bufferView":1,"byteOffset":2160,"componentType":5126,"count":6,"max":[0.7870641,0.0,0.127],"min":[-0.7870641,0.0,-0.127],"type":"VEC3","name":"accessorPositions"},{"bufferView":1,"byteOffset":2232,"componentType":5126,"count":6,"type":"VEC3","name":"accessorNormals"},{"bufferView":2,"byteOffset":720,"componentType":5126,"count":6,"type":"VEC2","name":"accessorUVs"},{"bufferView":0,"byteOffset":192,"componentType":5123,"count":6,"type":"SCALAR","name":"accessorIndices"},{"bufferView":1,"byteOffset":2304,"componentType":5126,"count":6,"max":[0.127,0.0,0.0514579043],"min":[-0.127,0.0,-0.0514579043],"type":"VEC3","name":"accessorPositions"},{"bufferView":1,"byteOffset":2376,"componentType":5126,"count":6,"type":"VEC3","name":"accessorNormals"},{"bufferView":2,"byteOffset":768,"componentType":5126,"count":6,"type":"VEC2","name":"accessorUVs"},{"bufferView":0,"byteOffset":204,"componentType":5123,"count":6,"type":"SCALAR","name":"accessorIndices"},{"bufferView":1,"byteOffset":2448,"componentType":5126,"count":6,"max":[0.263126969,1.61696612E-08,0.127],"min":[-0.239156231,-1.25501787E-08,-0.127],"type":"VEC3","name":"accessorPositions"},{"bufferView":1,"byteOffset":2520,"componentType":5126,"count":6,"type":"VEC3","name":"accessorNormals"},{"bufferView":2,"byteOffset":816,"componentType":5126,"count":6,"type":"VEC2","name":"accessorUVs"},{"bufferView":0,"byteOffset":216,"componentType":5123,"count":6,"type":"SCALAR","name":"accessorIndices"},{"bufferView":1,"byteOffset":2592,"componentType":5126,"count":6,"max":[0.23173064,0.0,0.127],"min":[-0.3147277,-1.25322064E-08,-0.127],"type":"VEC3","name":"accessorPositions"},{"bufferView":1,"byteOffset":2664,"componentType":5126,"count":6,"type":"VEC3","name":"accessorNormals"},{"bufferView":2,"byteOffset":864,"componentType":5126,"count":6,"type":"VEC2","name":"accessorUVs"},{"bufferView":0,"byteOffset":228,"componentType":5123,"count":6,"type":"SCALAR","name":"accessorIndices"},{"bufferView":1,"byteOffset":2736,"componentType":5126,"count":6,"max":[0.3174052,1.626894E-08,0.127],"min":[-0.209660873,0.0,-0.127],"type":"VEC3","name":"accessorPositions"},{"bufferView":1,"byteOffset":2808,"componentType":5126,"count":6,"type":"VEC3","name":"accessorNormals"},{"bufferView":2,"byteOffset":912,"componentType":5126,"count":6,"type":"VEC2","name":"accessorUVs"},{"bufferView":0,"byteOffset":240,"componentType":5123,"count":6,"type":"SCALAR","name":"accessorIndices"},{"bufferView":1,"byteOffset":2880,"componentType":5126,"count":6,"max":[0.127,0.0,0.0442429371],"min":[-0.127,0.0,-0.0442429371],"type":"VEC3","name":"accessorPositions"},{"bufferView":1,"byteOffset":2952,"componentType":5126,"count":6,"type":"VEC3","name":"accessorNormals"},{"bufferView":2,"byteOffset":960,"componentType":5126,"count":6,"type":"VEC2","name":"accessorUVs"},{"bufferView":0,"byteOffset":252,"componentType":5123,"count":6,"type":"SCALAR","name":"accessorIndices"},{"bufferView":1,"byteOffset":3024,"componentType":5126,"count":6,"max":[0.3833664,0.0,0.127],"min":[-0.3833664,0.0,-0.127],"type":"VEC3","name":"accessorPositions"},{"bufferView":1,"byteOffset":3096,"componentType":5126,"count":6,"type":"VEC3","name":"accessorNormals"},{"bufferView":2,"byteOffset":1008,"componentType":5126,"count":6,"type":"VEC2","name":"accessorUVs"},{"bufferView":0,"byteOffset":264,"componentType":5123,"count":6,"type":"SCALAR","name":"accessorIndices"},{"bufferView":1,"byteOffset":3168,"componentType":5126,"count":6,"max":[0.127,0.0,0.06025267],"min":[-0.127,0.0,-0.06025267],"type":"VEC3","name":"accessorPositions"},{"bufferView":1,"byteOffset":3240,"componentType":5126,"count":6,"type":"VEC3","name":"accessorNormals"},{"bufferView":2,"byteOffset":1056,"componentType":5126,"count":6,"type":"VEC2","name":"accessorUVs"},{"bufferView":0,"byteOffset":276,"componentType":5123,"count":6,"type":"SCALAR","name":"accessorIndices"},{"bufferView":1,"byteOffset":3312,"componentType":5126,"count":6,"max":[0.127,0.0,0.06795215],"min":[-0.127,0.0,-0.06795215],"type":"VEC3","name":"accessorPositions"},{"bufferView":1,"byteOffset":3384,"componentType":5126,"count":6,"type":"VEC3","name":"accessorNormals"},{"bufferView":2,"byteOffset":1104,"componentType":5126,"count":6,"type":"VEC2","name":"accessorUVs"},{"bufferView":0,"byteOffset":288,"componentType":5123,"count":6,"type":"SCALAR","name":"accessorIndices"},{"bufferView":1,"byteOffset":3456,"componentType":5126,"count":6,"max":[0.127,0.0,0.05116267],"min":[-0.127,0.0,-0.05116267],"type":"VEC3","name":"accessorPositions"},{"bufferView":1,"byteOffset":3528,"componentType":5126,"count":6,"type":"VEC3","name":"accessorNormals"},{"bufferView":2,"byteOffset":1152,"componentType":5126,"count":6,"type":"VEC2","name":"accessorUVs"},{"bufferView":0,"byteOffset":300,"componentType":5123,"count":6,"type":"SCALAR","name":"accessorIndices"},{"bufferView":1,"byteOffset":3600,"componentType":5126,"count":6,"max":[0.3836838,0.0,0.127],"min":[-0.3836838,0.0,-0.127],"type":"VEC3","name":"accessorPositions"},{"bufferView":1,"byteOffset":3672,"componentType":5126,"count":6,"type":"VEC3","name":"accessorNormals"},{"bufferView":2,"byteOffset":1200,"componentType":5126,"count":6,"type":"VEC2","name":"accessorUVs"}],"bufferViews":[{"buffer":0,"byteLength":312,"name":"bufferViewScalar"},{"buffer":0,"byteOffset":312,"byteLength":3744,"byteStride":12,"name":"bufferViewFloatVec3"},{"buffer":0,"byteOffset":4056,"byteLength":1248,"byteStride":8,"name":"bufferViewFloatVec2"}],"buffers":[{"uri":"4F_wall.bin","byteLength":5304}],"materials":[{"pbrMetallicRoughness":{"baseColorTexture":{"index":0},"metallicFactor":0.0,"roughnessFactor":0.450053632},"name":"Material #2100439133"},{"pbrMetallicRoughness":{"baseColorFactor":[0.5882353,0.5882353,0.5882353,1.0],"metallicFactor":0.0,"roughnessFactor":0.450053632},"name":"06 - Default"},{"pbrMetallicRoughness":{"baseColorTexture":{"index":1},"metallicFactor":0.0,"roughnessFactor":0.450053632},"name":"Material #2100438979"},{"pbrMetallicRoughness":{"baseColorFactor":[0.588,0.588,0.588,1.0],"metallicFactor":0.0,"roughnessFactor":0.450053632},"name":"瓷砖345"},{"pbrMetallicRoughness":{"baseColorTexture":{"index":2},"metallicFactor":0.0,"roughnessFactor":0.450053632},"name":"Material #2100439120"}],"textures":[{"sampler":0,"source":0,"name":"4f阅览室墙.jpg"},{"sampler":0,"source":1,"name":"楼梯窗户.jpg"},{"sampler":0,"source":2,"name":"4f电梯旁墙.jpg"}],"images":[{"uri":"./4f阅览室墙.jpg"},{"uri":"./楼梯窗户.jpg"},{"uri":"./4f电梯旁墙.jpg"}],"samplers":[{"magFilter":9729,"minFilter":9987}]}