{"asset":{"version":"2.0","generator":"babylon.js glTF exporter for 3dsmax 2018 v20200527.2"},"scene":0,"scenes":[{"nodes":[0,15]}],"nodes":[{"children":[1,2,3,4,5,6,7,8,9,10,11,12,13,14],"translation":[0.003151261,0.130656272,0.00103850244],"name":"外墙"},{"mesh":0,"translation":[0.7888105,0.0,1.91228127],"rotation":[0.0,0.0,-0.70710665,0.7071069],"name":"Plane019"},{"mesh":1,"translation":[1.114356,0.0,2.01662946],"rotation":[0.0,0.0,-0.70710665,0.7071069],"name":"Plane021"},{"mesh":2,"translation":[1.11369073,0.0,-2.02035427],"rotation":[0.0,0.0,-0.70710665,0.7071069],"name":"Plane033"},{"mesh":3,"translation":[0.9512586,0.0,-1.95240176],"rotation":[0.7071068,0.0,0.0,0.7071067],"name":"Plane034"},{"mesh":4,"translation":[0.7888268,0.0,-1.9012394],"rotation":[0.0,0.0,-0.70710665,0.7071069],"name":"Plane035"},{"mesh":5,"translation":[0.00176219863,0.000318003847,-1.850077],"rotation":[0.7071068,0.0,0.0,0.7071067],"name":"Plane036"},{"mesh":6,"translation":[-0.785301864,0.0,-1.90153348],"rotation":[-0.7071069,0.70710665,5.338507E-08,-5.33850866E-08],"name":"Plane037"},{"mesh":7,"translation":[-1.11115277,0.0,-2.01474452],"rotation":[-0.7071069,0.70710665,5.338507E-08,-5.33850866E-08],"name":"Plane039"},{"mesh":8,"translation":[-2.84167314,0.0,-2.37622857],"rotation":[0.7071068,0.0,0.0,0.7071067],"name":"Plane042"},{"mesh":9,"translation":[-1.110764,0.0,2.01818037],"rotation":[-0.7071069,0.70710665,5.338507E-08,-5.33850866E-08],"name":"Plane051"},{"mesh":10,"translation":[-0.7875453,0.00133344578,1.91242874],"rotation":[-0.7071069,0.70710665,5.338507E-08,-5.33850866E-08],"name":"Plane053"},{"mesh":11,"translation":[-0.470139235,0.0,1.868186],"rotation":[5.3385083E-08,-0.7071067,0.7071068,5.33850759E-08],"name":"Plane016"},{"mesh":12,"translation":[0.00330638723,0.0,1.868186],"rotation":[5.338507E-08,-0.7071069,0.70710665,5.33850866E-08],"name":"Plane017"},{"mesh":13,"translation":[0.474074543,0.0,1.868186],"rotation":[5.3385083E-08,-0.7071067,0.7071068,5.33850759E-08],"name":"Plane018"},{"name":"Default light"}],"meshes":[{"primitives":[{"attributes":{"POSITION":1,"NORMAL":2,"TEXCOORD_0":3},"indices":0,"material":0}],"name":"Plane019"},{"primitives":[{"attributes":{"POSITION":5,"NORMAL":6,"TEXCOORD_0":7},"indices":4,"material":0}],"name":"Plane021"},{"primitives":[{"attributes":{"POSITION":9,"NORMAL":10,"TEXCOORD_0":11},"indices":8,"material":0}],"name":"Plane033"},{"primitives":[{"attributes":{"POSITION":13,"NORMAL":14,"TEXCOORD_0":15},"indices":12,"material":1}],"name":"Plane034"},{"primitives":[{"attributes":{"POSITION":17,"NORMAL":18,"TEXCOORD_0":19},"indices":16,"material":0}],"name":"Plane035"},{"primitives":[{"attributes":{"POSITION":21,"NORMAL":22,"TEXCOORD_0":23},"indices":20,"material":0}],"name":"Plane036"},{"primitives":[{"attributes":{"POSITION":25,"NORMAL":26,"TEXCOORD_0":27},"indices":24,"material":0}],"name":"Plane037"},{"primitives":[{"attributes":{"POSITION":29,"NORMAL":30,"TEXCOORD_0":31},"indices":28,"material":0}],"name":"Plane039"},{"primitives":[{"attributes":{"POSITION":33,"NORMAL":34,"TEXCOORD_0":35},"indices":32,"material":2}],"name":"Plane042"},{"primitives":[{"attributes":{"POSITION":37,"NORMAL":38,"TEXCOORD_0":39},"indices":36,"material":0}],"name":"Plane051"},{"primitives":[{"attributes":{"POSITION":41,"NORMAL":42,"TEXCOORD_0":43},"indices":40,"material":0}],"name":"Plane053"},{"primitives":[{"attributes":{"POSITION":45,"NORMAL":46,"TEXCOORD_0":47},"indices":44,"material":3}],"name":"Plane016"},{"primitives":[{"attributes":{"POSITION":49,"NORMAL":50,"TEXCOORD_0":51},"indices":48,"material":4}],"name":"Plane017"},{"primitives":[{"attributes":{"POSITION":53,"NORMAL":54,"TEXCOORD_0":55},"indices":52,"material":4}],"name":"Plane018"}],"accessors":[{"bufferView":0,"componentType":5123,"count":6,"type":"SCALAR","name":"accessorIndices"},{"bufferView":1,"componentType":5126,"count":6,"max":[0.127,0.0,0.0440950319],"min":[-0.127,0.0,-0.0440950319],"type":"VEC3","name":"accessorPositions"},{"bufferView":1,"byteOffset":72,"componentType":5126,"count":6,"type":"VEC3","name":"accessorNormals"},{"bufferView":2,"componentType":5126,"count":6,"type":"VEC2","name":"accessorUVs"},{"bufferView":0,"byteOffset":12,"componentType":5123,"count":6,"type":"SCALAR","name":"accessorIndices"},{"bufferView":1,"byteOffset":144,"componentType":5126,"count":6,"max":[0.127,0.0,0.06025267],"min":[-0.127,0.0,-0.06025267],"type":"VEC3","name":"accessorPositions"},{"bufferView":1,"byteOffset":216,"componentType":5126,"count":6,"type":"VEC3","name":"accessorNormals"},{"bufferView":2,"byteOffset":48,"componentType":5126,"count":6,"type":"VEC2","name":"accessorUVs"},{"bufferView":0,"byteOffset":24,"componentType":5123,"count":6,"type":"SCALAR","name":"accessorIndices"},{"bufferView":1,"byteOffset":288,"componentType":5126,"count":6,"max":[0.127,0.0,0.06795215],"min":[-0.127,0.0,-0.06795215],"type":"VEC3","name":"accessorPositions"},{"bufferView":1,"byteOffset":360,"componentType":5126,"count":6,"type":"VEC3","name":"accessorNormals"},{"bufferView":2,"byteOffset":96,"componentType":5126,"count":6,"type":"VEC2","name":"accessorUVs"},{"bufferView":0,"byteOffset":36,"componentType":5123,"count":24,"type":"SCALAR","name":"accessorIndices"},{"bufferView":1,"byteOffset":432,"componentType":5126,"count":24,"max":[0.163097411,3.90907383,0.127],"min":[-2.06241155,-0.000589530042,-0.318008244],"type":"VEC3","name":"accessorPositions"},{"bufferView":1,"byteOffset":720,"componentType":5126,"count":24,"type":"VEC3","name":"accessorNormals"},{"bufferView":2,"byteOffset":144,"componentType":5126,"count":24,"type":"VEC2","name":"accessorUVs"},{"bufferView":0,"byteOffset":84,"componentType":5123,"count":6,"type":"SCALAR","name":"accessorIndices"},{"bufferView":1,"byteOffset":1008,"componentType":5126,"count":6,"max":[0.127,0.0,0.05116267],"min":[-0.127,0.0,-0.05116267],"type":"VEC3","name":"accessorPositions"},{"bufferView":1,"byteOffset":1080,"componentType":5126,"count":6,"type":"VEC3","name":"accessorNormals"},{"bufferView":2,"byteOffset":336,"componentType":5126,"count":6,"type":"VEC2","name":"accessorUVs"},{"bufferView":0,"byteOffset":96,"componentType":5123,"count":6,"type":"SCALAR","name":"accessorIndices"},{"bufferView":1,"byteOffset":1152,"componentType":5126,"count":6,"max":[0.7870641,0.0,0.127],"min":[-0.7870641,0.0,-0.127],"type":"VEC3","name":"accessorPositions"},{"bufferView":1,"byteOffset":1224,"componentType":5126,"count":6,"type":"VEC3","name":"accessorNormals"},{"bufferView":2,"byteOffset":384,"componentType":5126,"count":6,"type":"VEC2","name":"accessorUVs"},{"bufferView":0,"byteOffset":108,"componentType":5123,"count":6,"type":"SCALAR","name":"accessorIndices"},{"bufferView":1,"byteOffset":1296,"componentType":5126,"count":6,"max":[0.127,0.0,0.0514579043],"min":[-0.127,0.0,-0.0514579043],"type":"VEC3","name":"accessorPositions"},{"bufferView":1,"byteOffset":1368,"componentType":5126,"count":6,"type":"VEC3","name":"accessorNormals"},{"bufferView":2,"byteOffset":432,"componentType":5126,"count":6,"type":"VEC2","name":"accessorUVs"},{"bufferView":0,"byteOffset":120,"componentType":5123,"count":6,"type":"SCALAR","name":"accessorIndices"},{"bufferView":1,"byteOffset":1440,"componentType":5126,"count":6,"max":[0.127,0.0,0.061752528],"min":[-0.127,0.0,-0.061752528],"type":"VEC3","name":"accessorPositions"},{"bufferView":1,"byteOffset":1512,"componentType":5126,"count":6,"type":"VEC3","name":"accessorNormals"},{"bufferView":2,"byteOffset":480,"componentType":5126,"count":6,"type":"VEC2","name":"accessorUVs"},{"bufferView":0,"byteOffset":132,"componentType":5123,"count":72,"type":"SCALAR","name":"accessorIndices"},{"bufferView":1,"byteOffset":1584,"componentType":5126,"count":72,"max":[6.326126,4.45613575,0.126999944],"min":[-0.6541058,0.287922353,-0.127000719],"type":"VEC3","name":"accessorPositions"},{"bufferView":1,"byteOffset":2448,"componentType":5126,"count":72,"type":"VEC3","name":"accessorNormals"},{"bufferView":2,"byteOffset":528,"componentType":5126,"count":72,"type":"VEC2","name":"accessorUVs"},{"bufferView":0,"byteOffset":276,"componentType":5123,"count":6,"type":"SCALAR","name":"accessorIndices"},{"bufferView":1,"byteOffset":3312,"componentType":5126,"count":6,"max":[0.127,0.0,0.0615084544],"min":[-0.127,0.0,-0.0615084544],"type":"VEC3","name":"accessorPositions"},{"bufferView":1,"byteOffset":3384,"componentType":5126,"count":6,"type":"VEC3","name":"accessorNormals"},{"bufferView":2,"byteOffset":1104,"componentType":5126,"count":6,"type":"VEC2","name":"accessorUVs"},{"bufferView":0,"byteOffset":288,"componentType":5123,"count":6,"type":"SCALAR","name":"accessorIndices"},{"bufferView":1,"byteOffset":3456,"componentType":5126,"count":6,"max":[0.127,0.0,0.0442429371],"min":[-0.127,0.0,-0.0442429371],"type":"VEC3","name":"accessorPositions"},{"bufferView":1,"byteOffset":3528,"componentType":5126,"count":6,"type":"VEC3","name":"accessorNormals"},{"bufferView":2,"byteOffset":1152,"componentType":5126,"count":6,"type":"VEC2","name":"accessorUVs"},{"bufferView":0,"byteOffset":300,"componentType":5123,"count":6,"type":"SCALAR","name":"accessorIndices"},{"bufferView":1,"byteOffset":3600,"componentType":5126,"count":6,"max":[0.3174052,1.626894E-08,0.127],"min":[-0.209660873,0.0,-0.127],"type":"VEC3","name":"accessorPositions"},{"bufferView":1,"byteOffset":3672,"componentType":5126,"count":6,"type":"VEC3","name":"accessorNormals"},{"bufferView":2,"byteOffset":1200,"componentType":5126,"count":6,"type":"VEC2","name":"accessorUVs"},{"bufferView":0,"byteOffset":312,"componentType":5123,"count":6,"type":"SCALAR","name":"accessorIndices"},{"bufferView":1,"byteOffset":3744,"componentType":5126,"count":6,"max":[0.263126969,1.61696612E-08,0.127],"min":[-0.239156231,-1.25501787E-08,-0.127],"type":"VEC3","name":"accessorPositions"},{"bufferView":1,"byteOffset":3816,"componentType":5126,"count":6,"type":"VEC3","name":"accessorNormals"},{"bufferView":2,"byteOffset":1248,"componentType":5126,"count":6,"type":"VEC2","name":"accessorUVs"},{"bufferView":0,"byteOffset":324,"componentType":5123,"count":6,"type":"SCALAR","name":"accessorIndices"},{"bufferView":1,"byteOffset":3888,"componentType":5126,"count":6,"max":[0.23173064,0.0,0.127],"min":[-0.3147277,-1.25322064E-08,-0.127],"type":"VEC3","name":"accessorPositions"},{"bufferView":1,"byteOffset":3960,"componentType":5126,"count":6,"type":"VEC3","name":"accessorNormals"},{"bufferView":2,"byteOffset":1296,"componentType":5126,"count":6,"type":"VEC2","name":"accessorUVs"}],"bufferViews":[{"buffer":0,"byteLength":336,"name":"bufferViewScalar"},{"buffer":0,"byteOffset":336,"byteLength":4032,"byteStride":12,"name":"bufferViewFloatVec3"},{"buffer":0,"byteOffset":4368,"byteLength":1344,"byteStride":8,"name":"bufferViewFloatVec2"}],"buffers":[{"uri":"5F_wall.bin","byteLength":5712}],"materials":[{"pbrMetallicRoughness":{"baseColorFactor":[0.5882353,0.5882353,0.5882353,1.0],"metallicFactor":0.0,"roughnessFactor":0.450053632},"name":"06 - Default"},{"pbrMetallicRoughness":{"baseColorTexture":{"index":0},"metallicFactor":0.0,"roughnessFactor":0.450053632},"name":"Material #2100438979"},{"pbrMetallicRoughness":{"baseColorTexture":{"index":1},"metallicFactor":0.0,"roughnessFactor":0.450053632},"name":"Material #2100439126"},{"pbrMetallicRoughness":{"baseColorTexture":{"index":2},"metallicFactor":0.0,"roughnessFactor":0.450053632},"name":"Material #2100439031"},{"pbrMetallicRoughness":{"baseColorFactor":[0.588,0.588,0.588,1.0],"metallicFactor":0.0,"roughnessFactor":0.450053632},"name":"瓷砖345"}],"textures":[{"sampler":0,"source":0,"name":"楼梯窗户.jpg"},{"sampler":0,"source":1,"name":"5fwall~1.jpg"},{"sampler":0,"source":2,"name":"三楼电梯旁玻璃.jpg"}],"images":[{"uri":"./楼梯窗户.jpg"},{"uri":"./5fwall~1.jpg"},{"uri":"./三楼电梯旁玻璃.jpg"}],"samplers":[{"magFilter":9729,"minFilter":9987}]}