{"asset":{"version":"2.0","generator":"babylon.js glTF exporter for 3ds max 2019 v1.3.33"},"scene":0,"scenes":[{"nodes":[0,28],"extensions":{}}],"nodes":[{"children":[1,2,3,4,5,6,7,8,9,10,11,12,13,14,15,16,17,18,19,20,21,22,23,24,25,26,27],"translation":[0.1240654,5.143948,0.0408859253],"rotation":[0.0,0.0,0.0,1.0],"scale":[1.0,1.0,1.0],"name":"外墙"},{"mesh":0,"translation":[18.6643524,0.0,73.55063],"rotation":[5.3385083E-08,-0.7071067,0.7071068,5.33850759E-08],"scale":[1.0,1.0,1.0],"name":"Plane018"},{"mesh":1,"translation":[0.130172729,0.0,73.55063],"rotation":[5.338507E-08,-0.7071069,0.70710665,5.33850866E-08],"scale":[1.0,1.0,1.0],"name":"Plane017"},{"mesh":2,"translation":[-18.5094185,0.0,73.55063],"rotation":[5.3385083E-08,-0.7071067,0.7071068,5.33850759E-08],"scale":[1.0,1.0,1.0],"name":"Plane016"},{"mesh":3,"translation":[-31.005722,0.0524978638,75.29247],"rotation":[-0.7071069,0.70710665,5.338507E-08,-5.33850866E-08],"scale":[1.0,1.0,1.0],"name":"Plane053"},{"mesh":4,"translation":[-43.7308655,0.0,79.455925],"rotation":[-0.7071069,0.70710665,5.338507E-08,-5.33850866E-08],"scale":[1.0,1.0,1.0],"name":"Plane051"},{"mesh":5,"translation":[-59.1231155,0.0,81.87752],"rotation":[5.3385083E-08,-0.7071067,0.7071068,5.33850759E-08],"scale":[1.0,1.0,1.0],"name":"Plane050"},{"mesh":6,"translation":[-74.5153656,0.0,87.72398],"rotation":[-0.7071069,0.70710665,5.338507E-08,-5.33850866E-08],"scale":[1.0,1.0,1.0],"name":"Plane049"},{"mesh":7,"translation":[-143.608246,0.0,19.6229019],"rotation":[0.7071068,0.0,0.0,0.7071067],"scale":[1.0,1.0,1.0],"name":"Plane046"},{"mesh":8,"translation":[-143.63797,0.0,-19.501091],"rotation":[0.7071068,0.0,0.0,0.7071067],"scale":[1.0,1.0,1.0],"name":"Plane044"},{"mesh":9,"translation":[-149.830658,0.0,-56.5357666],"rotation":[0.0,0.0,-0.70710665,0.7071069],"scale":[1.0,1.0,1.0],"name":"Plane043"},{"mesh":10,"translation":[-111.876892,0.0,-93.55231],"rotation":[0.7071068,0.0,0.0,0.7071067],"scale":[1.0,1.0,1.0],"name":"Plane042"},{"mesh":11,"translation":[-73.92313,0.0,-87.6521],"rotation":[-0.7071069,0.70710665,5.338507E-08,-5.33850866E-08],"scale":[1.0,1.0,1.0],"name":"Plane041"},{"mesh":12,"translation":[-58.8346519,0.0,-81.75186],"rotation":[0.7071068,0.0,0.0,0.7071067],"scale":[1.0,1.0,1.0],"name":"Plane040"},{"mesh":13,"translation":[-43.7461739,0.0,-79.32065],"rotation":[-0.7071069,0.70710665,5.338507E-08,-5.33850866E-08],"scale":[1.0,1.0,1.0],"name":"Plane039"},{"mesh":14,"translation":[-30.9173965,0.0,-74.8635254],"rotation":[-0.7071069,0.70710665,5.338507E-08,-5.33850866E-08],"scale":[1.0,1.0,1.0],"name":"Plane037"},{"mesh":15,"translation":[0.0693779,0.0125198364,-72.83768],"rotation":[0.7071068,0.0,0.0,0.7071067],"scale":[1.0,1.0,1.0],"name":"Plane036"},{"mesh":16,"translation":[31.0561752,0.0,-74.851944],"rotation":[0.0,0.0,-0.70710665,0.7071069],"scale":[1.0,1.0,1.0],"name":"Plane035"},{"mesh":17,"translation":[37.4511261,0.0,-76.86621],"rotation":[0.7071068,0.0,0.0,0.7071067],"scale":[1.0,1.0,1.0],"name":"Plane034"},{"mesh":18,"translation":[43.8460922,0.0,-79.5415039],"rotation":[0.0,0.0,-0.70710665,0.7071069],"scale":[1.0,1.0,1.0],"name":"Plane033"},{"mesh":19,"translation":[58.95175,0.0,-82.21678],"rotation":[0.7071068,0.0,0.0,0.7071067],"scale":[1.0,1.0,1.0],"name":"Plane032"},{"mesh":20,"translation":[74.05745,0.0,-87.88365],"rotation":[0.0,0.0,-0.70710665,0.7071069],"scale":[1.0,1.0,1.0],"name":"Plane031"},{"mesh":21,"translation":[143.498489,0.0,-19.487236],"rotation":[5.3385083E-08,-0.7071067,0.7071068,5.33850759E-08],"scale":[1.0,1.0,1.0],"name":"Plane028"},{"mesh":22,"translation":[143.499939,0.0,19.6240616],"rotation":[0.7071068,0.0,0.0,0.7071067],"scale":[1.0,1.0,1.0],"name":"Plane026"},{"mesh":23,"translation":[74.0586243,0.0,87.6685],"rotation":[0.0,0.0,-0.70710665,0.7071069],"scale":[1.0,1.0,1.0],"name":"Plane023"},{"mesh":24,"translation":[43.8722839,0.0,79.39486],"rotation":[0.0,0.0,-0.70710665,0.7071069],"scale":[1.0,1.0,1.0],"name":"Plane021"},{"mesh":25,"translation":[58.9654541,0.0,81.76701],"rotation":[5.3385083E-08,-0.7071067,0.7071068,5.33850759E-08],"scale":[1.0,1.0,1.0],"name":"Plane022"},{"mesh":26,"translation":[31.05553,0.0,75.28667],"rotation":[0.0,0.0,-0.70710665,0.7071069],"scale":[1.0,1.0,1.0],"name":"Plane019"},{"translation":[0.0,0.0,0.0],"rotation":[0.0,0.0,0.0,1.0],"scale":[1.0,1.0,1.0],"name":"Default light"}],"meshes":[{"primitives":[{"attributes":{"POSITION":1,"NORMAL":2,"TEXCOORD_0":3},"indices":0,"mode":4,"material":0}],"name":"Plane018"},{"primitives":[{"attributes":{"POSITION":5,"NORMAL":6,"TEXCOORD_0":7},"indices":4,"mode":4,"material":0}],"name":"Plane017"},{"primitives":[{"attributes":{"POSITION":9,"NORMAL":10,"TEXCOORD_0":11},"indices":8,"mode":4,"material":1}],"name":"Plane016"},{"primitives":[{"attributes":{"POSITION":13,"NORMAL":14,"TEXCOORD_0":15},"indices":12,"mode":4,"material":2}],"name":"Plane053"},{"primitives":[{"attributes":{"POSITION":17,"NORMAL":18,"TEXCOORD_0":19},"indices":16,"mode":4,"material":2}],"name":"Plane051"},{"primitives":[{"attributes":{"POSITION":21,"NORMAL":22,"TEXCOORD_0":23},"indices":20,"mode":4,"material":2}],"name":"Plane050"},{"primitives":[{"attributes":{"POSITION":25,"NORMAL":26,"TEXCOORD_0":27},"indices":24,"mode":4,"material":2}],"name":"Plane049"},{"primitives":[{"attributes":{"POSITION":29,"NORMAL":30,"TEXCOORD_0":31},"indices":28,"mode":4,"material":2}],"name":"Plane046"},{"primitives":[{"attributes":{"POSITION":33,"NORMAL":34,"TEXCOORD_0":35},"indices":32,"mode":4,"material":2}],"name":"Plane044"},{"primitives":[{"attributes":{"POSITION":37,"NORMAL":38,"TEXCOORD_0":39},"indices":36,"mode":4,"material":3}],"name":"Plane043"},{"primitives":[{"attributes":{"POSITION":41,"NORMAL":42,"TEXCOORD_0":43},"indices":40,"mode":4,"material":4}],"name":"Plane042"},{"primitives":[{"attributes":{"POSITION":45,"NORMAL":46,"TEXCOORD_0":47},"indices":44,"mode":4,"material":2}],"name":"Plane041"},{"primitives":[{"attributes":{"POSITION":49,"NORMAL":50,"TEXCOORD_0":51},"indices":48,"mode":4,"material":2}],"name":"Plane040"},{"primitives":[{"attributes":{"POSITION":53,"NORMAL":54,"TEXCOORD_0":55},"indices":52,"mode":4,"material":2}],"name":"Plane039"},{"primitives":[{"attributes":{"POSITION":57,"NORMAL":58,"TEXCOORD_0":59},"indices":56,"mode":4,"material":2}],"name":"Plane037"},{"primitives":[{"attributes":{"POSITION":61,"NORMAL":62,"TEXCOORD_0":63},"indices":60,"mode":4,"material":2}],"name":"Plane036"},{"primitives":[{"attributes":{"POSITION":65,"NORMAL":66,"TEXCOORD_0":67},"indices":64,"mode":4,"material":2}],"name":"Plane035"},{"primitives":[{"attributes":{"POSITION":69,"NORMAL":70,"TEXCOORD_0":71},"indices":68,"mode":4,"material":5}],"name":"Plane034"},{"primitives":[{"attributes":{"POSITION":73,"NORMAL":74,"TEXCOORD_0":75},"indices":72,"mode":4,"material":2}],"name":"Plane033"},{"primitives":[{"attributes":{"POSITION":77,"NORMAL":78,"TEXCOORD_0":79},"indices":76,"mode":4,"material":2}],"name":"Plane032"},{"primitives":[{"attributes":{"POSITION":81,"NORMAL":82,"TEXCOORD_0":83},"indices":80,"mode":4,"material":2}],"name":"Plane031"},{"primitives":[{"attributes":{"POSITION":85,"NORMAL":86,"TEXCOORD_0":87},"indices":84,"mode":4,"material":2}],"name":"Plane028"},{"primitives":[{"attributes":{"POSITION":89,"NORMAL":90,"TEXCOORD_0":91},"indices":88,"mode":4,"material":2}],"name":"Plane026"},{"primitives":[{"attributes":{"POSITION":93,"NORMAL":94,"TEXCOORD_0":95},"indices":92,"mode":4,"material":2}],"name":"Plane023"},{"primitives":[{"attributes":{"POSITION":97,"NORMAL":98,"TEXCOORD_0":99},"indices":96,"mode":4,"material":2}],"name":"Plane021"},{"primitives":[{"attributes":{"POSITION":101,"NORMAL":102,"TEXCOORD_0":103},"indices":100,"mode":4,"material":2}],"name":"Plane022"},{"primitives":[{"attributes":{"POSITION":105,"NORMAL":106,"TEXCOORD_0":107},"indices":104,"mode":4,"material":2}],"name":"Plane019"}],"accessors":[{"bufferView":0,"componentType":5123,"count":6,"type":"SCALAR","name":"accessorIndices"},{"bufferView":1,"componentType":5126,"count":6,"max":[9.123254,0.0,5.0],"min":[-12.3908539,-7.62939453E-06,-4.999999],"type":"VEC3","name":"accessorPositions"},{"bufferView":1,"byteOffset":72,"componentType":5126,"count":6,"type":"VEC3","name":"accessorNormals"},{"bufferView":2,"componentType":5126,"count":6,"type":"VEC2","name":"accessorUVs"},{"bufferView":0,"byteOffset":12,"componentType":5123,"count":6,"type":"SCALAR","name":"accessorIndices"},{"bufferView":1,"byteOffset":144,"componentType":5126,"count":6,"max":[10.35933,7.62939453E-06,5.0],"min":[-9.4156,0.0,-4.99999952],"type":"VEC3","name":"accessorPositions"},{"bufferView":1,"byteOffset":216,"componentType":5126,"count":6,"type":"VEC3","name":"accessorNormals"},{"bufferView":2,"byteOffset":48,"componentType":5126,"count":6,"type":"VEC2","name":"accessorUVs"},{"bufferView":0,"byteOffset":24,"componentType":5123,"count":6,"type":"SCALAR","name":"accessorIndices"},{"bufferView":1,"byteOffset":288,"componentType":5126,"count":6,"max":[12.4962673,7.62939453E-06,5.0],"min":[-8.254365,0.0,-4.999999],"type":"VEC3","name":"accessorPositions"},{"bufferView":1,"byteOffset":360,"componentType":5126,"count":6,"type":"VEC3","name":"accessorNormals"},{"bufferView":2,"byteOffset":96,"componentType":5126,"count":6,"type":"VEC2","name":"accessorUVs"},{"bufferView":0,"byteOffset":36,"componentType":5123,"count":6,"type":"SCALAR","name":"accessorIndices"},{"bufferView":1,"byteOffset":432,"componentType":5126,"count":6,"max":[5.0,0.0,1.74185181],"min":[-4.99999952,0.0,-1.74185181],"type":"VEC3","name":"accessorPositions"},{"bufferView":1,"byteOffset":504,"componentType":5126,"count":6,"type":"VEC3","name":"accessorNormals"},{"bufferView":2,"byteOffset":144,"componentType":5126,"count":6,"type":"VEC2","name":"accessorUVs"},{"bufferView":0,"byteOffset":48,"componentType":5123,"count":6,"type":"SCALAR","name":"accessorIndices"},{"bufferView":1,"byteOffset":576,"componentType":5126,"count":6,"max":[5.0,0.0,2.42159271],"min":[-4.999999,-3.81469727E-06,-2.42159271],"type":"VEC3","name":"accessorPositions"},{"bufferView":1,"byteOffset":648,"componentType":5126,"count":6,"type":"VEC3","name":"accessorNormals"},{"bufferView":2,"byteOffset":192,"componentType":5126,"count":6,"type":"VEC2","name":"accessorUVs"},{"bufferView":0,"byteOffset":60,"componentType":5123,"count":6,"type":"SCALAR","name":"accessorIndices"},{"bufferView":1,"byteOffset":720,"componentType":5126,"count":6,"max":[15.39225,0.0,5.0],"min":[-15.39225,0.0,-4.99999952],"type":"VEC3","name":"accessorPositions"},{"bufferView":1,"byteOffset":792,"componentType":5126,"count":6,"type":"VEC3","name":"accessorNormals"},{"bufferView":2,"byteOffset":240,"componentType":5126,"count":6,"type":"VEC2","name":"accessorUVs"},{"bufferView":0,"byteOffset":72,"componentType":5123,"count":6,"type":"SCALAR","name":"accessorIndices"},{"bufferView":1,"byteOffset":864,"componentType":5126,"count":6,"max":[5.0,0.0,5.84645844],"min":[-4.999999,0.0,-5.84645844],"type":"VEC3","name":"accessorPositions"},{"bufferView":1,"byteOffset":936,"componentType":5126,"count":6,"type":"VEC3","name":"accessorNormals"},{"bufferView":2,"byteOffset":288,"componentType":5126,"count":6,"type":"VEC2","name":"accessorUVs"},{"bufferView":0,"byteOffset":84,"componentType":5123,"count":6,"type":"SCALAR","name":"accessorIndices"},{"bufferView":1,"byteOffset":1008,"componentType":5126,"count":6,"max":[6.12501526,0.0,5.0],"min":[0.786117554,-1.90734863E-06,-4.999999],"type":"VEC3","name":"accessorPositions"},{"bufferView":1,"byteOffset":1080,"componentType":5126,"count":6,"type":"VEC3","name":"accessorNormals"},{"bufferView":2,"byteOffset":336,"componentType":5126,"count":6,"type":"VEC2","name":"accessorUVs"},{"bufferView":0,"byteOffset":96,"componentType":5123,"count":6,"type":"SCALAR","name":"accessorIndices"},{"bufferView":1,"byteOffset":1152,"componentType":5126,"count":6,"max":[6.25810242,0.0,5.0],"min":[0.7254486,-1.90734863E-06,-5.0],"type":"VEC3","name":"accessorPositions"},{"bufferView":1,"byteOffset":1224,"componentType":5126,"count":6,"type":"VEC3","name":"accessorNormals"},{"bufferView":2,"byteOffset":384,"componentType":5126,"count":6,"type":"VEC2","name":"accessorUVs"},{"bufferView":0,"byteOffset":108,"componentType":5123,"count":24,"type":"SCALAR","name":"accessorIndices"},{"bufferView":1,"byteOffset":1296,"componentType":5126,"count":24,"max":[5.000092,292.554382,150.1062],"min":[-4.999997,6.922394,-37.0346756],"type":"VEC3","name":"accessorPositions"},{"bufferView":1,"byteOffset":1584,"componentType":5126,"count":24,"type":"VEC3","name":"accessorNormals"},{"bufferView":2,"byteOffset":432,"componentType":5126,"count":24,"type":"VEC2","name":"accessorUVs"},{"bufferView":0,"byteOffset":156,"componentType":5123,"count":24,"type":"SCALAR","name":"accessorIndices"},{"bufferView":1,"byteOffset":1872,"componentType":5126,"count":24,"max":[254.634491,187.122742,5.0],"min":[-31.0398254,0.0,-5.00003],"type":"VEC3","name":"accessorPositions"},{"bufferView":1,"byteOffset":2160,"componentType":5126,"count":24,"type":"VEC3","name":"accessorNormals"},{"bufferView":2,"byteOffset":624,"componentType":5126,"count":24,"type":"VEC2","name":"accessorUVs"},{"bufferView":0,"byteOffset":204,"componentType":5123,"count":6,"type":"SCALAR","name":"accessorIndices"},{"bufferView":1,"byteOffset":2448,"componentType":5126,"count":6,"max":[5.0,0.0,5.90020752],"min":[-4.999999,0.0,-5.90020752],"type":"VEC3","name":"accessorPositions"},{"bufferView":1,"byteOffset":2520,"componentType":5126,"count":6,"type":"VEC3","name":"accessorNormals"},{"bufferView":2,"byteOffset":816,"componentType":5126,"count":6,"type":"VEC2","name":"accessorUVs"},{"bufferView":0,"byteOffset":216,"componentType":5123,"count":6,"type":"SCALAR","name":"accessorIndices"},{"bufferView":1,"byteOffset":2592,"componentType":5126,"count":6,"max":[15.0884781,0.0,5.0],"min":[-15.0884781,0.0,-4.99999952],"type":"VEC3","name":"accessorPositions"},{"bufferView":1,"byteOffset":2664,"componentType":5126,"count":6,"type":"VEC3","name":"accessorNormals"},{"bufferView":2,"byteOffset":864,"componentType":5126,"count":6,"type":"VEC2","name":"accessorUVs"},{"bufferView":0,"byteOffset":228,"componentType":5123,"count":6,"type":"SCALAR","name":"accessorIndices"},{"bufferView":1,"byteOffset":2736,"componentType":5126,"count":6,"max":[5.0,0.0,2.43120575],"min":[-4.999999,-3.81469727E-06,-2.43120575],"type":"VEC3","name":"accessorPositions"},{"bufferView":1,"byteOffset":2808,"componentType":5126,"count":6,"type":"VEC3","name":"accessorNormals"},{"bufferView":2,"byteOffset":912,"componentType":5126,"count":6,"type":"VEC2","name":"accessorUVs"},{"bufferView":0,"byteOffset":240,"componentType":5123,"count":6,"type":"SCALAR","name":"accessorIndices"},{"bufferView":1,"byteOffset":2880,"componentType":5126,"count":6,"max":[5.0,0.0,2.02590179],"min":[-4.99999952,0.0,-2.02590179],"type":"VEC3","name":"accessorPositions"},{"bufferView":1,"byteOffset":2952,"componentType":5126,"count":6,"type":"VEC3","name":"accessorNormals"},{"bufferView":2,"byteOffset":960,"componentType":5126,"count":6,"type":"VEC2","name":"accessorUVs"},{"bufferView":0,"byteOffset":252,"componentType":5123,"count":6,"type":"SCALAR","name":"accessorIndices"},{"bufferView":1,"byteOffset":3024,"componentType":5126,"count":6,"max":[30.9867744,0.0,5.0],"min":[-30.9867744,0.0,-5.0],"type":"VEC3","name":"accessorPositions"},{"bufferView":1,"byteOffset":3096,"componentType":5126,"count":6,"type":"VEC3","name":"accessorNormals"},{"bufferView":2,"byteOffset":1008,"componentType":5126,"count":6,"type":"VEC2","name":"accessorUVs"},{"bufferView":0,"byteOffset":264,"componentType":5123,"count":6,"type":"SCALAR","name":"accessorIndices"},{"bufferView":1,"byteOffset":3168,"componentType":5126,"count":6,"max":[5.0,0.0,2.0142746],"min":[-5.0,0.0,-2.0142746],"type":"VEC3","name":"accessorPositions"},{"bufferView":1,"byteOffset":3240,"componentType":5126,"count":6,"type":"VEC3","name":"accessorNormals"},{"bufferView":2,"byteOffset":1056,"componentType":5126,"count":6,"type":"VEC2","name":"accessorUVs"},{"bufferView":0,"byteOffset":276,"componentType":5123,"count":24,"type":"SCALAR","name":"accessorIndices"},{"bufferView":1,"byteOffset":3312,"componentType":5126,"count":24,"max":[6.421158,153.900543,5.0],"min":[-81.1973,-0.0232086182,-12.52001],"type":"VEC3","name":"accessorPositions"},{"bufferView":1,"byteOffset":3600,"componentType":5126,"count":24,"type":"VEC3","name":"accessorNormals"},{"bufferView":2,"byteOffset":1104,"componentType":5126,"count":24,"type":"VEC2","name":"accessorUVs"},{"bufferView":0,"byteOffset":324,"componentType":5123,"count":6,"type":"SCALAR","name":"accessorIndices"},{"bufferView":1,"byteOffset":3888,"componentType":5126,"count":6,"max":[5.0,3.81469727E-06,2.67528534],"min":[-5.0,0.0,-2.67528534],"type":"VEC3","name":"accessorPositions"},{"bufferView":1,"byteOffset":3960,"componentType":5126,"count":6,"type":"VEC3","name":"accessorNormals"},{"bufferView":2,"byteOffset":1296,"componentType":5126,"count":6,"type":"VEC2","name":"accessorUVs"},{"bufferView":0,"byteOffset":336,"componentType":5123,"count":6,"type":"SCALAR","name":"accessorIndices"},{"bufferView":1,"byteOffset":4032,"componentType":5126,"count":6,"max":[15.1056633,0.0,5.0],"min":[-15.1056633,0.0,-4.99999952],"type":"VEC3","name":"accessorPositions"},{"bufferView":1,"byteOffset":4104,"componentType":5126,"count":6,"type":"VEC3","name":"accessorNormals"},{"bufferView":2,"byteOffset":1344,"componentType":5126,"count":6,"type":"VEC2","name":"accessorUVs"},{"bufferView":0,"byteOffset":348,"componentType":5123,"count":6,"type":"SCALAR","name":"accessorIndices"},{"bufferView":1,"byteOffset":4176,"componentType":5126,"count":6,"max":[5.0,0.0,5.666794],"min":[-5.0,0.0,-5.666794],"type":"VEC3","name":"accessorPositions"},{"bufferView":1,"byteOffset":4248,"componentType":5126,"count":6,"type":"VEC3","name":"accessorNormals"},{"bufferView":2,"byteOffset":1392,"componentType":5126,"count":6,"type":"VEC2","name":"accessorUVs"},{"bufferView":0,"byteOffset":360,"componentType":5123,"count":6,"type":"SCALAR","name":"accessorIndices"},{"bufferView":1,"byteOffset":4320,"componentType":5126,"count":6,"max":[6.314316,1.90734863E-06,5.0],"min":[0.803588867,0.0,-4.999999],"type":"VEC3","name":"accessorPositions"},{"bufferView":1,"byteOffset":4392,"componentType":5126,"count":6,"type":"VEC3","name":"accessorNormals"},{"bufferView":2,"byteOffset":1440,"componentType":5126,"count":6,"type":"VEC2","name":"accessorUVs"},{"bufferView":0,"byteOffset":372,"componentType":5123,"count":6,"type":"SCALAR","name":"accessorIndices"},{"bufferView":1,"byteOffset":4464,"componentType":5126,"count":6,"max":[-0.7854767,0.0,5.0],"min":[-6.35180664,-1.90734863E-06,-4.999999],"type":"VEC3","name":"accessorPositions"},{"bufferView":1,"byteOffset":4536,"componentType":5126,"count":6,"type":"VEC3","name":"accessorNormals"},{"bufferView":2,"byteOffset":1488,"componentType":5126,"count":6,"type":"VEC2","name":"accessorUVs"},{"bufferView":0,"byteOffset":384,"componentType":5123,"count":6,"type":"SCALAR","name":"accessorIndices"},{"bufferView":1,"byteOffset":4608,"componentType":5126,"count":6,"max":[5.0,0.0,5.90146637],"min":[-5.0,0.0,-5.90146637],"type":"VEC3","name":"accessorPositions"},{"bufferView":1,"byteOffset":4680,"componentType":5126,"count":6,"type":"VEC3","name":"accessorNormals"},{"bufferView":2,"byteOffset":1536,"componentType":5126,"count":6,"type":"VEC2","name":"accessorUVs"},{"bufferView":0,"byteOffset":396,"componentType":5123,"count":6,"type":"SCALAR","name":"accessorIndices"},{"bufferView":1,"byteOffset":4752,"componentType":5126,"count":6,"max":[5.0,3.81469727E-06,2.37215424],"min":[-5.0,0.0,-2.37215424],"type":"VEC3","name":"accessorPositions"},{"bufferView":1,"byteOffset":4824,"componentType":5126,"count":6,"type":"VEC3","name":"accessorNormals"},{"bufferView":2,"byteOffset":1584,"componentType":5126,"count":6,"type":"VEC2","name":"accessorUVs"},{"bufferView":0,"byteOffset":408,"componentType":5123,"count":6,"type":"SCALAR","name":"accessorIndices"},{"bufferView":1,"byteOffset":4896,"componentType":5126,"count":6,"max":[15.0931664,0.0,5.0],"min":[-15.0931625,-7.62939453E-06,-4.99999952],"type":"VEC3","name":"accessorPositions"},{"bufferView":1,"byteOffset":4968,"componentType":5126,"count":6,"type":"VEC3","name":"accessorNormals"},{"bufferView":2,"byteOffset":1632,"componentType":5126,"count":6,"type":"VEC2","name":"accessorUVs"},{"bufferView":0,"byteOffset":420,"componentType":5123,"count":6,"type":"SCALAR","name":"accessorIndices"},{"bufferView":1,"byteOffset":5040,"componentType":5126,"count":6,"max":[5.0,0.0,1.736023],"min":[-5.0,0.0,-1.736023],"type":"VEC3","name":"accessorPositions"},{"bufferView":1,"byteOffset":5112,"componentType":5126,"count":6,"type":"VEC3","name":"accessorNormals"},{"bufferView":2,"byteOffset":1680,"componentType":5126,"count":6,"type":"VEC2","name":"accessorUVs"}],"bufferViews":[{"buffer":0,"byteLength":432,"name":"bufferViewScalar"},{"buffer":0,"byteOffset":432,"byteLength":5184,"byteStride":12,"name":"bufferViewFloatVec3"},{"buffer":0,"byteOffset":5616,"byteLength":1728,"byteStride":8,"name":"bufferViewFloatVec2"}],"buffers":[{"uri":"3Fwall.bin","byteLength":7344}],"materials":[{"pbrMetallicRoughness":{"baseColorFactor":[0.6125001,0.6125001,0.6125001,1.0],"metallicFactor":0.0,"roughnessFactor":0.9},"emissiveFactor":[0.0,0.0,0.0],"alphaMode":"OPAQUE","name":"瓷砖345"},{"pbrMetallicRoughness":{"baseColorFactor":[1.0,1.0,1.0,1.0],"baseColorTexture":{"index":0,"texCoord":0},"metallicFactor":0.0,"roughnessFactor":0.9},"emissiveFactor":[0.0,0.0,0.0],"alphaMode":"OPAQUE","name":"Material #2100439031"},{"pbrMetallicRoughness":{"baseColorFactor":[0.612745166,0.612745166,0.612745166,1.0],"metallicFactor":0.0,"roughnessFactor":0.9},"emissiveFactor":[0.0,0.0,0.0],"alphaMode":"OPAQUE","name":"06 - Default"},{"pbrMetallicRoughness":{"baseColorFactor":[1.0,1.0,1.0,1.0],"baseColorTexture":{"index":1,"texCoord":0},"metallicFactor":0.0,"roughnessFactor":0.9},"emissiveFactor":[0.0,0.0,0.0],"alphaMode":"OPAQUE","name":"Material #2100439033"},{"pbrMetallicRoughness":{"baseColorFactor":[1.0,1.0,1.0,1.0],"baseColorTexture":{"index":2,"texCoord":0},"metallicFactor":0.0,"roughnessFactor":0.9},"emissiveFactor":[0.0,0.0,0.0],"alphaMode":"OPAQUE","name":"Material #2100438966"},{"pbrMetallicRoughness":{"baseColorFactor":[1.0,1.0,1.0,1.0],"baseColorTexture":{"index":3,"texCoord":0},"metallicFactor":0.0,"roughnessFactor":0.9},"emissiveFactor":[0.0,0.0,0.0],"alphaMode":"OPAQUE","name":"Material #2100438979"}],"textures":[{"sampler":0,"source":0,"name":"三楼电梯旁玻璃.jpg"},{"sampler":0,"source":1,"name":"3f两侧阅览室窗户.jpg"},{"sampler":0,"source":2,"name":"阅览室窗户.jpg"},{"sampler":0,"source":3,"name":"楼梯窗户.jpg"}],"images":[{"uri":"%E4%B8%89%E6%A5%BC%E7%94%B5%E6%A2%AF%E6%97%81%E7%8E%BB%E7%92%83.jpg"},{"uri":"3f%E4%B8%A4%E4%BE%A7%E9%98%85%E8%A7%88%E5%AE%A4%E7%AA%97%E6%88%B7.jpg"},{"uri":"%E9%98%85%E8%A7%88%E5%AE%A4%E7%AA%97%E6%88%B7.jpg"},{"uri":"%E6%A5%BC%E6%A2%AF%E7%AA%97%E6%88%B7.jpg"}],"samplers":[{"magFilter":9729,"minFilter":9987,"wrapS":10497,"wrapT":10497}]}