{"asset":{"version":"2.0","generator":"babylon.js glTF exporter for 3ds max 2019 v1.3.33"},"scene":0,"scenes":[{"nodes":[0,1,2,3,20],"extensions":{}}],"nodes":[{"mesh":0,"translation":[0.122046471,0.1439724,0.5866575],"rotation":[-1.0,-1.61073208E-13,-4.01339264E-07,4.01339264E-07],"scale":[1.0,-1.0,1.0],"name":"报告厅"},{"mesh":1,"translation":[-43.6068,5.143948,79.49681],"rotation":[-0.7071069,0.70710665,5.338507E-08,-5.33850866E-08],"scale":[1.0,1.0,1.0],"name":"Plane051"},{"mesh":2,"translation":[31.1795959,5.143948,75.32755],"rotation":[0.0,0.0,-0.70710665,0.7071069],"scale":[1.0,1.0,1.0],"name":"Plane019"},{"children":[4,5,6,7,8,9,10,11,12,13,14,15,16,17,18,19],"translation":[-0.0988693237,8.831966,-0.1244545],"rotation":[0.0,0.0,0.0,1.0],"scale":[1.0,1.0,1.0],"name":"外墙"},{"mesh":3,"translation":[-111.653954,-3.68801832,-93.38696],"rotation":[0.7071068,0.0,0.0,0.7071067],"scale":[1.0,1.0,1.0],"name":"Plane042"},{"mesh":4,"translation":[-58.6117172,-3.68801832,-81.58652],"rotation":[0.7071068,0.0,0.0,0.7071067],"scale":[1.0,1.0,1.0],"name":"Plane040"},{"mesh":5,"translation":[-43.52324,-3.68801832,-79.155304],"rotation":[-0.7071069,0.70710665,5.338507E-08,-5.33850866E-08],"scale":[1.0,1.0,1.0],"name":"Plane039"},{"mesh":6,"translation":[37.67406,-3.68801832,-76.70087],"rotation":[0.7071068,0.0,0.0,0.7071067],"scale":[1.0,1.0,1.0],"name":"Plane034"},{"mesh":7,"translation":[-58.90018,-3.68801832,82.04286],"rotation":[5.3385083E-08,-0.7071067,0.7071068,5.33850759E-08],"scale":[1.0,1.0,1.0],"name":"Plane050"},{"mesh":8,"translation":[0.292312622,-3.67549849,-72.67233],"rotation":[0.7071068,0.0,0.0,0.7071067],"scale":[1.0,1.0,1.0],"name":"Plane036"},{"mesh":9,"translation":[-30.6944618,-3.68801832,-74.69818],"rotation":[-0.7071069,0.70710665,5.338507E-08,-5.33850866E-08],"scale":[1.0,1.0,1.0],"name":"Plane037"},{"mesh":10,"translation":[0.353107452,-3.68801832,73.71597],"rotation":[5.338507E-08,-0.7071069,0.70710665,5.33850866E-08],"scale":[1.0,1.0,1.0],"name":"Plane017"},{"mesh":11,"translation":[18.8872871,-3.68801832,73.71597],"rotation":[5.3385083E-08,-0.7071067,0.7071068,5.33850759E-08],"scale":[1.0,1.0,1.0],"name":"Plane018"},{"mesh":12,"translation":[-18.2864838,-3.68801832,73.71597],"rotation":[5.3385083E-08,-0.7071067,0.7071068,5.33850759E-08],"scale":[1.0,1.0,1.0],"name":"Plane016"},{"mesh":13,"translation":[-30.7827873,-3.63552046,75.45781],"rotation":[-0.7071069,0.70710665,5.338507E-08,-5.33850866E-08],"scale":[1.0,1.0,1.0],"name":"Plane053"},{"mesh":14,"translation":[59.18839,-3.68801832,81.93236],"rotation":[5.3385083E-08,-0.7071067,0.7071068,5.33850759E-08],"scale":[1.0,1.0,1.0],"name":"Plane022"},{"mesh":15,"translation":[44.09522,-3.68801832,79.5601959],"rotation":[0.0,0.0,-0.70710665,0.7071069],"scale":[1.0,1.0,1.0],"name":"Plane021"},{"mesh":16,"translation":[44.0690269,-3.68801832,-79.37616],"rotation":[0.0,0.0,-0.70710665,0.7071069],"scale":[1.0,1.0,1.0],"name":"Plane033"},{"mesh":17,"translation":[31.27911,-3.68801832,-74.6866],"rotation":[0.0,0.0,-0.70710665,0.7071069],"scale":[1.0,1.0,1.0],"name":"Plane035"},{"mesh":18,"translation":[59.1746864,-3.68801832,-82.05144],"rotation":[0.7071068,0.0,0.0,0.7071067],"scale":[1.0,1.0,1.0],"name":"Plane032"},{"translation":[0.0,0.0,0.0],"rotation":[0.0,0.0,0.0,1.0],"scale":[1.0,1.0,1.0],"name":"Default light"}],"meshes":[{"primitives":[{"attributes":{"POSITION":1,"NORMAL":2,"TEXCOORD_0":3},"indices":0,"mode":4,"material":0}],"name":"报告厅"},{"primitives":[{"attributes":{"POSITION":5,"NORMAL":6,"TEXCOORD_0":7},"indices":4,"mode":4,"material":1}],"name":"Plane051"},{"primitives":[{"attributes":{"POSITION":9,"NORMAL":10,"TEXCOORD_0":11},"indices":8,"mode":4,"material":1}],"name":"Plane019"},{"primitives":[{"attributes":{"POSITION":13,"NORMAL":14,"TEXCOORD_0":15},"indices":12,"mode":4,"material":2}],"name":"Plane042"},{"primitives":[{"attributes":{"POSITION":17,"NORMAL":18,"TEXCOORD_0":19},"indices":16,"mode":4,"material":1}],"name":"Plane040"},{"primitives":[{"attributes":{"POSITION":21,"NORMAL":22,"TEXCOORD_0":23},"indices":20,"mode":4,"material":1}],"name":"Plane039"},{"primitives":[{"attributes":{"POSITION":25,"NORMAL":26,"TEXCOORD_0":27},"indices":24,"mode":4,"material":3}],"name":"Plane034"},{"primitives":[{"attributes":{"POSITION":29,"NORMAL":30,"TEXCOORD_0":31},"indices":28,"mode":4,"material":1}],"name":"Plane050"},{"primitives":[{"attributes":{"POSITION":33,"NORMAL":34,"TEXCOORD_0":35},"indices":32,"mode":4,"material":1}],"name":"Plane036"},{"primitives":[{"attributes":{"POSITION":37,"NORMAL":38,"TEXCOORD_0":39},"indices":36,"mode":4,"material":1}],"name":"Plane037"},{"primitives":[{"attributes":{"POSITION":41,"NORMAL":42,"TEXCOORD_0":43},"indices":40,"mode":4,"material":4}],"name":"Plane017"},{"primitives":[{"attributes":{"POSITION":45,"NORMAL":46,"TEXCOORD_0":47},"indices":44,"mode":4,"material":4}],"name":"Plane018"},{"primitives":[{"attributes":{"POSITION":49,"NORMAL":50,"TEXCOORD_0":51},"indices":48,"mode":4,"material":5}],"name":"Plane016"},{"primitives":[{"attributes":{"POSITION":53,"NORMAL":54,"TEXCOORD_0":55},"indices":52,"mode":4,"material":1}],"name":"Plane053"},{"primitives":[{"attributes":{"POSITION":57,"NORMAL":58,"TEXCOORD_0":59},"indices":56,"mode":4,"material":1}],"name":"Plane022"},{"primitives":[{"attributes":{"POSITION":61,"NORMAL":62,"TEXCOORD_0":63},"indices":60,"mode":4,"material":1}],"name":"Plane021"},{"primitives":[{"attributes":{"POSITION":65,"NORMAL":66,"TEXCOORD_0":67},"indices":64,"mode":4,"material":1}],"name":"Plane033"},{"primitives":[{"attributes":{"POSITION":69,"NORMAL":70,"TEXCOORD_0":71},"indices":68,"mode":4,"material":1}],"name":"Plane035"},{"primitives":[{"attributes":{"POSITION":73,"NORMAL":74,"TEXCOORD_0":75},"indices":72,"mode":4,"material":1}],"name":"Plane032"}],"accessors":[{"bufferView":0,"componentType":5123,"count":108,"type":"SCALAR","name":"accessorIndices"},{"bufferView":1,"componentType":5126,"count":108,"max":[31.4117374,25.0475616,31.4880867],"min":[-31.2689533,-1.49011612E-08,-31.4805927],"type":"VEC3","name":"accessorPositions"},{"bufferView":1,"byteOffset":1296,"componentType":5126,"count":108,"type":"VEC3","name":"accessorNormals"},{"bufferView":2,"componentType":5126,"count":108,"type":"VEC2","name":"accessorUVs"},{"bufferView":0,"byteOffset":216,"componentType":5123,"count":6,"type":"SCALAR","name":"accessorIndices"},{"bufferView":1,"byteOffset":2592,"componentType":5126,"count":6,"max":[5.0,0.0,2.42159271],"min":[-4.999999,-3.81469727E-06,-2.42159271],"type":"VEC3","name":"accessorPositions"},{"bufferView":1,"byteOffset":2664,"componentType":5126,"count":6,"type":"VEC3","name":"accessorNormals"},{"bufferView":2,"byteOffset":864,"componentType":5126,"count":6,"type":"VEC2","name":"accessorUVs"},{"bufferView":0,"byteOffset":228,"componentType":5123,"count":6,"type":"SCALAR","name":"accessorIndices"},{"bufferView":1,"byteOffset":2736,"componentType":5126,"count":6,"max":[5.0,0.0,1.736023],"min":[-5.0,0.0,-1.736023],"type":"VEC3","name":"accessorPositions"},{"bufferView":1,"byteOffset":2808,"componentType":5126,"count":6,"type":"VEC3","name":"accessorNormals"},{"bufferView":2,"byteOffset":912,"componentType":5126,"count":6,"type":"VEC2","name":"accessorUVs"},{"bufferView":0,"byteOffset":240,"componentType":5123,"count":48,"type":"SCALAR","name":"accessorIndices"},{"bufferView":1,"byteOffset":2880,"componentType":5126,"count":48,"max":[249.060074,175.438416,4.999998],"min":[-25.7521973,11.3355255,-5.000028],"type":"VEC3","name":"accessorPositions"},{"bufferView":1,"byteOffset":3456,"componentType":5126,"count":48,"type":"VEC3","name":"accessorNormals"},{"bufferView":2,"byteOffset":960,"componentType":5126,"count":48,"type":"VEC2","name":"accessorUVs"},{"bufferView":0,"byteOffset":336,"componentType":5123,"count":6,"type":"SCALAR","name":"accessorIndices"},{"bufferView":1,"byteOffset":4032,"componentType":5126,"count":6,"max":[15.0884781,0.0,5.0],"min":[-15.0884781,0.0,-4.99999952],"type":"VEC3","name":"accessorPositions"},{"bufferView":1,"byteOffset":4104,"componentType":5126,"count":6,"type":"VEC3","name":"accessorNormals"},{"bufferView":2,"byteOffset":1344,"componentType":5126,"count":6,"type":"VEC2","name":"accessorUVs"},{"bufferView":0,"byteOffset":348,"componentType":5123,"count":6,"type":"SCALAR","name":"accessorIndices"},{"bufferView":1,"byteOffset":4176,"componentType":5126,"count":6,"max":[5.0,0.0,2.43119812],"min":[-4.999999,-3.81469727E-06,-2.43119812],"type":"VEC3","name":"accessorPositions"},{"bufferView":1,"byteOffset":4248,"componentType":5126,"count":6,"type":"VEC3","name":"accessorNormals"},{"bufferView":2,"byteOffset":1392,"componentType":5126,"count":6,"type":"VEC2","name":"accessorUVs"},{"bufferView":0,"byteOffset":360,"componentType":5123,"count":24,"type":"SCALAR","name":"accessorIndices"},{"bufferView":1,"byteOffset":4320,"componentType":5126,"count":24,"max":[6.421158,153.900543,5.0],"min":[-81.1973,-0.0232086182,-12.52001],"type":"VEC3","name":"accessorPositions"},{"bufferView":1,"byteOffset":4608,"componentType":5126,"count":24,"type":"VEC3","name":"accessorNormals"},{"bufferView":2,"byteOffset":1440,"componentType":5126,"count":24,"type":"VEC2","name":"accessorUVs"},{"bufferView":0,"byteOffset":408,"componentType":5123,"count":6,"type":"SCALAR","name":"accessorIndices"},{"bufferView":1,"byteOffset":4896,"componentType":5126,"count":6,"max":[15.39225,0.0,5.0],"min":[-15.39225,0.0,-4.99999952],"type":"VEC3","name":"accessorPositions"},{"bufferView":1,"byteOffset":4968,"componentType":5126,"count":6,"type":"VEC3","name":"accessorNormals"},{"bufferView":2,"byteOffset":1632,"componentType":5126,"count":6,"type":"VEC2","name":"accessorUVs"},{"bufferView":0,"byteOffset":420,"componentType":5123,"count":6,"type":"SCALAR","name":"accessorIndices"},{"bufferView":1,"byteOffset":5040,"componentType":5126,"count":6,"max":[30.9867744,0.0,5.0],"min":[-30.9867744,0.0,-5.0],"type":"VEC3","name":"accessorPositions"},{"bufferView":1,"byteOffset":5112,"componentType":5126,"count":6,"type":"VEC3","name":"accessorNormals"},{"bufferView":2,"byteOffset":1680,"componentType":5126,"count":6,"type":"VEC2","name":"accessorUVs"},{"bufferView":0,"byteOffset":432,"componentType":5123,"count":6,"type":"SCALAR","name":"accessorIndices"},{"bufferView":1,"byteOffset":5184,"componentType":5126,"count":6,"max":[5.0,0.0,2.02590179],"min":[-4.99999952,0.0,-2.02590179],"type":"VEC3","name":"accessorPositions"},{"bufferView":1,"byteOffset":5256,"componentType":5126,"count":6,"type":"VEC3","name":"accessorNormals"},{"bufferView":2,"byteOffset":1728,"componentType":5126,"count":6,"type":"VEC2","name":"accessorUVs"},{"bufferView":0,"byteOffset":444,"componentType":5123,"count":6,"type":"SCALAR","name":"accessorIndices"},{"bufferView":1,"byteOffset":5328,"componentType":5126,"count":6,"max":[10.35933,7.62939453E-06,5.0],"min":[-9.4156,0.0,-4.99999952],"type":"VEC3","name":"accessorPositions"},{"bufferView":1,"byteOffset":5400,"componentType":5126,"count":6,"type":"VEC3","name":"accessorNormals"},{"bufferView":2,"byteOffset":1776,"componentType":5126,"count":6,"type":"VEC2","name":"accessorUVs"},{"bufferView":0,"byteOffset":456,"componentType":5123,"count":6,"type":"SCALAR","name":"accessorIndices"},{"bufferView":1,"byteOffset":5472,"componentType":5126,"count":6,"max":[9.123254,0.0,5.0],"min":[-12.3908539,-7.62939453E-06,-4.999999],"type":"VEC3","name":"accessorPositions"},{"bufferView":1,"byteOffset":5544,"componentType":5126,"count":6,"type":"VEC3","name":"accessorNormals"},{"bufferView":2,"byteOffset":1824,"componentType":5126,"count":6,"type":"VEC2","name":"accessorUVs"},{"bufferView":0,"byteOffset":468,"componentType":5123,"count":6,"type":"SCALAR","name":"accessorIndices"},{"bufferView":1,"byteOffset":5616,"componentType":5126,"count":6,"max":[12.4962673,7.62939453E-06,5.0],"min":[-8.254365,0.0,-4.999999],"type":"VEC3","name":"accessorPositions"},{"bufferView":1,"byteOffset":5688,"componentType":5126,"count":6,"type":"VEC3","name":"accessorNormals"},{"bufferView":2,"byteOffset":1872,"componentType":5126,"count":6,"type":"VEC2","name":"accessorUVs"},{"bufferView":0,"byteOffset":480,"componentType":5123,"count":6,"type":"SCALAR","name":"accessorIndices"},{"bufferView":1,"byteOffset":5760,"componentType":5126,"count":6,"max":[5.0,0.0,1.74185181],"min":[-4.99999952,0.0,-1.74185181],"type":"VEC3","name":"accessorPositions"},{"bufferView":1,"byteOffset":5832,"componentType":5126,"count":6,"type":"VEC3","name":"accessorNormals"},{"bufferView":2,"byteOffset":1920,"componentType":5126,"count":6,"type":"VEC2","name":"accessorUVs"},{"bufferView":0,"byteOffset":492,"componentType":5123,"count":6,"type":"SCALAR","name":"accessorIndices"},{"bufferView":1,"byteOffset":5904,"componentType":5126,"count":6,"max":[15.0931664,0.0,5.0],"min":[-15.0931625,-7.62939453E-06,-4.99999952],"type":"VEC3","name":"accessorPositions"},{"bufferView":1,"byteOffset":5976,"componentType":5126,"count":6,"type":"VEC3","name":"accessorNormals"},{"bufferView":2,"byteOffset":1968,"componentType":5126,"count":6,"type":"VEC2","name":"accessorUVs"},{"bufferView":0,"byteOffset":504,"componentType":5123,"count":6,"type":"SCALAR","name":"accessorIndices"},{"bufferView":1,"byteOffset":6048,"componentType":5126,"count":6,"max":[5.0,3.81469727E-06,2.37215424],"min":[-5.0,0.0,-2.37215424],"type":"VEC3","name":"accessorPositions"},{"bufferView":1,"byteOffset":6120,"componentType":5126,"count":6,"type":"VEC3","name":"accessorNormals"},{"bufferView":2,"byteOffset":2016,"componentType":5126,"count":6,"type":"VEC2","name":"accessorUVs"},{"bufferView":0,"byteOffset":516,"componentType":5123,"count":6,"type":"SCALAR","name":"accessorIndices"},{"bufferView":1,"byteOffset":6192,"componentType":5126,"count":6,"max":[5.0,3.81469727E-06,2.67527771],"min":[-5.0,0.0,-2.67527771],"type":"VEC3","name":"accessorPositions"},{"bufferView":1,"byteOffset":6264,"componentType":5126,"count":6,"type":"VEC3","name":"accessorNormals"},{"bufferView":2,"byteOffset":2064,"componentType":5126,"count":6,"type":"VEC2","name":"accessorUVs"},{"bufferView":0,"byteOffset":528,"componentType":5123,"count":6,"type":"SCALAR","name":"accessorIndices"},{"bufferView":1,"byteOffset":6336,"componentType":5126,"count":6,"max":[5.0,0.0,2.01428223],"min":[-5.0,0.0,-2.01428223],"type":"VEC3","name":"accessorPositions"},{"bufferView":1,"byteOffset":6408,"componentType":5126,"count":6,"type":"VEC3","name":"accessorNormals"},{"bufferView":2,"byteOffset":2112,"componentType":5126,"count":6,"type":"VEC2","name":"accessorUVs"},{"bufferView":0,"byteOffset":540,"componentType":5123,"count":6,"type":"SCALAR","name":"accessorIndices"},{"bufferView":1,"byteOffset":6480,"componentType":5126,"count":6,"max":[15.1056633,0.0,5.0],"min":[-15.1056633,0.0,-4.99999952],"type":"VEC3","name":"accessorPositions"},{"bufferView":1,"byteOffset":6552,"componentType":5126,"count":6,"type":"VEC3","name":"accessorNormals"},{"bufferView":2,"byteOffset":2160,"componentType":5126,"count":6,"type":"VEC2","name":"accessorUVs"}],"bufferViews":[{"buffer":0,"byteLength":552,"name":"bufferViewScalar"},{"buffer":0,"byteOffset":552,"byteLength":6624,"byteStride":12,"name":"bufferViewFloatVec3"},{"buffer":0,"byteOffset":7176,"byteLength":2208,"byteStride":8,"name":"bufferViewFloatVec2"}],"buffers":[{"uri":"4Fwall.bin","byteLength":9384}],"materials":[{"pbrMetallicRoughness":{"baseColorFactor":[1.0,1.0,1.0,1.0],"baseColorTexture":{"index":0,"texCoord":0},"metallicFactor":0.0,"roughnessFactor":0.9},"emissiveFactor":[0.0,0.0,0.0],"alphaMode":"OPAQUE","name":"Material #2100438946"},{"pbrMetallicRoughness":{"baseColorFactor":[0.612745166,0.612745166,0.612745166,1.0],"metallicFactor":0.0,"roughnessFactor":0.9},"emissiveFactor":[0.0,0.0,0.0],"alphaMode":"OPAQUE","name":"06 - Default"},{"pbrMetallicRoughness":{"baseColorFactor":[1.0,1.0,1.0,1.0],"baseColorTexture":{"index":1,"texCoord":0},"metallicFactor":0.0,"roughnessFactor":0.9},"emissiveFactor":[0.0,0.0,0.0],"alphaMode":"OPAQUE","name":"Material #2100439133"},{"pbrMetallicRoughness":{"baseColorFactor":[1.0,1.0,1.0,1.0],"baseColorTexture":{"index":2,"texCoord":0},"metallicFactor":0.0,"roughnessFactor":0.9},"emissiveFactor":[0.0,0.0,0.0],"alphaMode":"OPAQUE","name":"Material #2100438979"},{"pbrMetallicRoughness":{"baseColorFactor":[0.6125001,0.6125001,0.6125001,1.0],"metallicFactor":0.0,"roughnessFactor":0.9},"emissiveFactor":[0.0,0.0,0.0],"alphaMode":"OPAQUE","name":"瓷砖345"},{"pbrMetallicRoughness":{"baseColorFactor":[1.0,1.0,1.0,1.0],"baseColorTexture":{"index":3,"texCoord":0},"metallicFactor":0.0,"roughnessFactor":0.9},"emissiveFactor":[0.0,0.0,0.0],"alphaMode":"OPAQUE","name":"Material #2100439120"}],"textures":[{"sampler":0,"source":0,"name":"报告厅.jpg"},{"sampler":0,"source":1,"name":"4f阅览室墙.jpg"},{"sampler":0,"source":2,"name":"楼梯窗户.jpg"},{"sampler":0,"source":3,"name":"4f电梯旁墙.jpg"}],"images":[{"uri":"%E6%8A%A5%E5%91%8A%E5%8E%85.jpg"},{"uri":"4f%E9%98%85%E8%A7%88%E5%AE%A4%E5%A2%99.jpg"},{"uri":"%E6%A5%BC%E6%A2%AF%E7%AA%97%E6%88%B7.jpg"},{"uri":"4f%E7%94%B5%E6%A2%AF%E6%97%81%E5%A2%99.jpg"}],"samplers":[{"magFilter":9729,"minFilter":9987,"wrapS":10497,"wrapT":10497}]}