{"asset":{"version":"2.0","generator":"babylon.js glTF exporter for 3ds max 2019 v1.3.33"},"scene":0,"scenes":[{"nodes":[0,15],"extensions":{}}],"nodes":[{"children":[1,2,3,4,5,6,7,8,9,10,11,12,13,14],"translation":[0.1240654,5.143948,0.0408859253],"rotation":[0.0,0.0,0.0,1.0],"scale":[1.0,1.0,1.0],"name":"外墙"},{"mesh":0,"translation":[31.05553,0.0,75.28667],"rotation":[0.0,0.0,-0.70710665,0.7071069],"scale":[1.0,1.0,1.0],"name":"Plane019"},{"mesh":1,"translation":[43.8722839,0.0,79.39486],"rotation":[0.0,0.0,-0.70710665,0.7071069],"scale":[1.0,1.0,1.0],"name":"Plane021"},{"mesh":2,"translation":[43.8460922,0.0,-79.5415039],"rotation":[0.0,0.0,-0.70710665,0.7071069],"scale":[1.0,1.0,1.0],"name":"Plane033"},{"mesh":3,"translation":[37.4511261,0.0,-76.86621],"rotation":[0.7071068,0.0,0.0,0.7071067],"scale":[1.0,1.0,1.0],"name":"Plane034"},{"mesh":4,"translation":[31.0561752,0.0,-74.851944],"rotation":[0.0,0.0,-0.70710665,0.7071069],"scale":[1.0,1.0,1.0],"name":"Plane035"},{"mesh":5,"translation":[0.0693779,0.0125198364,-72.83768],"rotation":[0.7071068,0.0,0.0,0.7071067],"scale":[1.0,1.0,1.0],"name":"Plane036"},{"mesh":6,"translation":[-30.9173965,0.0,-74.8635254],"rotation":[-0.7071069,0.70710665,5.338507E-08,-5.33850866E-08],"scale":[1.0,1.0,1.0],"name":"Plane037"},{"mesh":7,"translation":[-43.7461739,0.0,-79.32065],"rotation":[-0.7071069,0.70710665,5.338507E-08,-5.33850866E-08],"scale":[1.0,1.0,1.0],"name":"Plane039"},{"mesh":8,"translation":[-111.876892,0.0,-93.55231],"rotation":[0.7071068,0.0,0.0,0.7071067],"scale":[1.0,1.0,1.0],"name":"Plane042"},{"mesh":9,"translation":[-43.7308655,0.0,79.455925],"rotation":[-0.7071069,0.70710665,5.338507E-08,-5.33850866E-08],"scale":[1.0,1.0,1.0],"name":"Plane051"},{"mesh":10,"translation":[-31.005722,0.0524978638,75.29247],"rotation":[-0.7071069,0.70710665,5.338507E-08,-5.33850866E-08],"scale":[1.0,1.0,1.0],"name":"Plane053"},{"mesh":11,"translation":[-18.5094185,0.0,73.55063],"rotation":[5.3385083E-08,-0.7071067,0.7071068,5.33850759E-08],"scale":[1.0,1.0,1.0],"name":"Plane016"},{"mesh":12,"translation":[0.130172729,0.0,73.55063],"rotation":[5.338507E-08,-0.7071069,0.70710665,5.33850866E-08],"scale":[1.0,1.0,1.0],"name":"Plane017"},{"mesh":13,"translation":[18.6643524,0.0,73.55063],"rotation":[5.3385083E-08,-0.7071067,0.7071068,5.33850759E-08],"scale":[1.0,1.0,1.0],"name":"Plane018"},{"translation":[0.0,0.0,0.0],"rotation":[0.0,0.0,0.0,1.0],"scale":[1.0,1.0,1.0],"name":"Default light"}],"meshes":[{"primitives":[{"attributes":{"POSITION":1,"NORMAL":2,"TEXCOORD_0":3},"indices":0,"mode":4,"material":0}],"name":"Plane019"},{"primitives":[{"attributes":{"POSITION":5,"NORMAL":6,"TEXCOORD_0":7},"indices":4,"mode":4,"material":0}],"name":"Plane021"},{"primitives":[{"attributes":{"POSITION":9,"NORMAL":10,"TEXCOORD_0":11},"indices":8,"mode":4,"material":0}],"name":"Plane033"},{"primitives":[{"attributes":{"POSITION":13,"NORMAL":14,"TEXCOORD_0":15},"indices":12,"mode":4,"material":1}],"name":"Plane034"},{"primitives":[{"attributes":{"POSITION":17,"NORMAL":18,"TEXCOORD_0":19},"indices":16,"mode":4,"material":0}],"name":"Plane035"},{"primitives":[{"attributes":{"POSITION":21,"NORMAL":22,"TEXCOORD_0":23},"indices":20,"mode":4,"material":0}],"name":"Plane036"},{"primitives":[{"attributes":{"POSITION":25,"NORMAL":26,"TEXCOORD_0":27},"indices":24,"mode":4,"material":0}],"name":"Plane037"},{"primitives":[{"attributes":{"POSITION":29,"NORMAL":30,"TEXCOORD_0":31},"indices":28,"mode":4,"material":0}],"name":"Plane039"},{"primitives":[{"attributes":{"POSITION":33,"NORMAL":34,"TEXCOORD_0":35},"indices":32,"mode":4,"material":2}],"name":"Plane042"},{"primitives":[{"attributes":{"POSITION":37,"NORMAL":38,"TEXCOORD_0":39},"indices":36,"mode":4,"material":0}],"name":"Plane051"},{"primitives":[{"attributes":{"POSITION":41,"NORMAL":42,"TEXCOORD_0":43},"indices":40,"mode":4,"material":0}],"name":"Plane053"},{"primitives":[{"attributes":{"POSITION":45,"NORMAL":46,"TEXCOORD_0":47},"indices":44,"mode":4,"material":3}],"name":"Plane016"},{"primitives":[{"attributes":{"POSITION":49,"NORMAL":50,"TEXCOORD_0":51},"indices":48,"mode":4,"material":4}],"name":"Plane017"},{"primitives":[{"attributes":{"POSITION":53,"NORMAL":54,"TEXCOORD_0":55},"indices":52,"mode":4,"material":4}],"name":"Plane018"}],"accessors":[{"bufferView":0,"componentType":5123,"count":6,"type":"SCALAR","name":"accessorIndices"},{"bufferView":1,"componentType":5126,"count":6,"max":[5.0,0.0,1.736023],"min":[-5.0,0.0,-1.736023],"type":"VEC3","name":"accessorPositions"},{"bufferView":1,"byteOffset":72,"componentType":5126,"count":6,"type":"VEC3","name":"accessorNormals"},{"bufferView":2,"componentType":5126,"count":6,"type":"VEC2","name":"accessorUVs"},{"bufferView":0,"byteOffset":12,"componentType":5123,"count":6,"type":"SCALAR","name":"accessorIndices"},{"bufferView":1,"byteOffset":144,"componentType":5126,"count":6,"max":[5.0,3.81469727E-06,2.37215424],"min":[-5.0,0.0,-2.37215424],"type":"VEC3","name":"accessorPositions"},{"bufferView":1,"byteOffset":216,"componentType":5126,"count":6,"type":"VEC3","name":"accessorNormals"},{"bufferView":2,"byteOffset":48,"componentType":5126,"count":6,"type":"VEC2","name":"accessorUVs"},{"bufferView":0,"byteOffset":24,"componentType":5123,"count":6,"type":"SCALAR","name":"accessorIndices"},{"bufferView":1,"byteOffset":288,"componentType":5126,"count":6,"max":[5.0,3.81469727E-06,2.67528534],"min":[-5.0,0.0,-2.67528534],"type":"VEC3","name":"accessorPositions"},{"bufferView":1,"byteOffset":360,"componentType":5126,"count":6,"type":"VEC3","name":"accessorNormals"},{"bufferView":2,"byteOffset":96,"componentType":5126,"count":6,"type":"VEC2","name":"accessorUVs"},{"bufferView":0,"byteOffset":36,"componentType":5123,"count":24,"type":"SCALAR","name":"accessorIndices"},{"bufferView":1,"byteOffset":432,"componentType":5126,"count":24,"max":[6.421158,153.900543,5.0],"min":[-81.1973,-0.0232086182,-12.52001],"type":"VEC3","name":"accessorPositions"},{"bufferView":1,"byteOffset":720,"componentType":5126,"count":24,"type":"VEC3","name":"accessorNormals"},{"bufferView":2,"byteOffset":144,"componentType":5126,"count":24,"type":"VEC2","name":"accessorUVs"},{"bufferView":0,"byteOffset":84,"componentType":5123,"count":6,"type":"SCALAR","name":"accessorIndices"},{"bufferView":1,"byteOffset":1008,"componentType":5126,"count":6,"max":[5.0,0.0,2.0142746],"min":[-5.0,0.0,-2.0142746],"type":"VEC3","name":"accessorPositions"},{"bufferView":1,"byteOffset":1080,"componentType":5126,"count":6,"type":"VEC3","name":"accessorNormals"},{"bufferView":2,"byteOffset":336,"componentType":5126,"count":6,"type":"VEC2","name":"accessorUVs"},{"bufferView":0,"byteOffset":96,"componentType":5123,"count":6,"type":"SCALAR","name":"accessorIndices"},{"bufferView":1,"byteOffset":1152,"componentType":5126,"count":6,"max":[30.9867744,0.0,5.0],"min":[-30.9867744,0.0,-5.0],"type":"VEC3","name":"accessorPositions"},{"bufferView":1,"byteOffset":1224,"componentType":5126,"count":6,"type":"VEC3","name":"accessorNormals"},{"bufferView":2,"byteOffset":384,"componentType":5126,"count":6,"type":"VEC2","name":"accessorUVs"},{"bufferView":0,"byteOffset":108,"componentType":5123,"count":6,"type":"SCALAR","name":"accessorIndices"},{"bufferView":1,"byteOffset":1296,"componentType":5126,"count":6,"max":[5.0,0.0,2.02590179],"min":[-4.99999952,0.0,-2.02590179],"type":"VEC3","name":"accessorPositions"},{"bufferView":1,"byteOffset":1368,"componentType":5126,"count":6,"type":"VEC3","name":"accessorNormals"},{"bufferView":2,"byteOffset":432,"componentType":5126,"count":6,"type":"VEC2","name":"accessorUVs"},{"bufferView":0,"byteOffset":120,"componentType":5123,"count":6,"type":"SCALAR","name":"accessorIndices"},{"bufferView":1,"byteOffset":1440,"componentType":5126,"count":6,"max":[5.0,0.0,2.43120575],"min":[-4.999999,-3.81469727E-06,-2.43120575],"type":"VEC3","name":"accessorPositions"},{"bufferView":1,"byteOffset":1512,"componentType":5126,"count":6,"type":"VEC3","name":"accessorNormals"},{"bufferView":2,"byteOffset":480,"componentType":5126,"count":6,"type":"VEC2","name":"accessorUVs"},{"bufferView":0,"byteOffset":132,"componentType":5123,"count":72,"type":"SCALAR","name":"accessorIndices"},{"bufferView":1,"byteOffset":1584,"componentType":5126,"count":72,"max":[249.060089,175.438416,4.999998],"min":[-25.7521973,11.3355255,-5.000028],"type":"VEC3","name":"accessorPositions"},{"bufferView":1,"byteOffset":2448,"componentType":5126,"count":72,"type":"VEC3","name":"accessorNormals"},{"bufferView":2,"byteOffset":528,"componentType":5126,"count":72,"type":"VEC2","name":"accessorUVs"},{"bufferView":0,"byteOffset":276,"componentType":5123,"count":6,"type":"SCALAR","name":"accessorIndices"},{"bufferView":1,"byteOffset":3312,"componentType":5126,"count":6,"max":[5.0,0.0,2.42159271],"min":[-4.999999,-3.81469727E-06,-2.42159271],"type":"VEC3","name":"accessorPositions"},{"bufferView":1,"byteOffset":3384,"componentType":5126,"count":6,"type":"VEC3","name":"accessorNormals"},{"bufferView":2,"byteOffset":1104,"componentType":5126,"count":6,"type":"VEC2","name":"accessorUVs"},{"bufferView":0,"byteOffset":288,"componentType":5123,"count":6,"type":"SCALAR","name":"accessorIndices"},{"bufferView":1,"byteOffset":3456,"componentType":5126,"count":6,"max":[5.0,0.0,1.74185181],"min":[-4.99999952,0.0,-1.74185181],"type":"VEC3","name":"accessorPositions"},{"bufferView":1,"byteOffset":3528,"componentType":5126,"count":6,"type":"VEC3","name":"accessorNormals"},{"bufferView":2,"byteOffset":1152,"componentType":5126,"count":6,"type":"VEC2","name":"accessorUVs"},{"bufferView":0,"byteOffset":300,"componentType":5123,"count":6,"type":"SCALAR","name":"accessorIndices"},{"bufferView":1,"byteOffset":3600,"componentType":5126,"count":6,"max":[12.4962673,7.62939453E-06,5.0],"min":[-8.254365,0.0,-4.999999],"type":"VEC3","name":"accessorPositions"},{"bufferView":1,"byteOffset":3672,"componentType":5126,"count":6,"type":"VEC3","name":"accessorNormals"},{"bufferView":2,"byteOffset":1200,"componentType":5126,"count":6,"type":"VEC2","name":"accessorUVs"},{"bufferView":0,"byteOffset":312,"componentType":5123,"count":6,"type":"SCALAR","name":"accessorIndices"},{"bufferView":1,"byteOffset":3744,"componentType":5126,"count":6,"max":[10.35933,7.62939453E-06,5.0],"min":[-9.4156,0.0,-4.99999952],"type":"VEC3","name":"accessorPositions"},{"bufferView":1,"byteOffset":3816,"componentType":5126,"count":6,"type":"VEC3","name":"accessorNormals"},{"bufferView":2,"byteOffset":1248,"componentType":5126,"count":6,"type":"VEC2","name":"accessorUVs"},{"bufferView":0,"byteOffset":324,"componentType":5123,"count":6,"type":"SCALAR","name":"accessorIndices"},{"bufferView":1,"byteOffset":3888,"componentType":5126,"count":6,"max":[9.123254,0.0,5.0],"min":[-12.3908539,-7.62939453E-06,-4.999999],"type":"VEC3","name":"accessorPositions"},{"bufferView":1,"byteOffset":3960,"componentType":5126,"count":6,"type":"VEC3","name":"accessorNormals"},{"bufferView":2,"byteOffset":1296,"componentType":5126,"count":6,"type":"VEC2","name":"accessorUVs"}],"bufferViews":[{"buffer":0,"byteLength":336,"name":"bufferViewScalar"},{"buffer":0,"byteOffset":336,"byteLength":4032,"byteStride":12,"name":"bufferViewFloatVec3"},{"buffer":0,"byteOffset":4368,"byteLength":1344,"byteStride":8,"name":"bufferViewFloatVec2"}],"buffers":[{"uri":"5Fwall.bin","byteLength":5712}],"materials":[{"pbrMetallicRoughness":{"baseColorFactor":[0.612745166,0.612745166,0.612745166,1.0],"metallicFactor":0.0,"roughnessFactor":0.9},"emissiveFactor":[0.0,0.0,0.0],"alphaMode":"OPAQUE","name":"06 - Default"},{"pbrMetallicRoughness":{"baseColorFactor":[1.0,1.0,1.0,1.0],"baseColorTexture":{"index":0,"texCoord":0},"metallicFactor":0.0,"roughnessFactor":0.9},"emissiveFactor":[0.0,0.0,0.0],"alphaMode":"OPAQUE","name":"Material #2100438979"},{"pbrMetallicRoughness":{"baseColorFactor":[1.0,1.0,1.0,1.0],"baseColorTexture":{"index":1,"texCoord":0},"metallicFactor":0.0,"roughnessFactor":0.9},"emissiveFactor":[0.0,0.0,0.0],"alphaMode":"OPAQUE","name":"Material #2100439126"},{"pbrMetallicRoughness":{"baseColorFactor":[1.0,1.0,1.0,1.0],"baseColorTexture":{"index":2,"texCoord":0},"metallicFactor":0.0,"roughnessFactor":0.9},"emissiveFactor":[0.0,0.0,0.0],"alphaMode":"OPAQUE","name":"Material #2100439031"},{"pbrMetallicRoughness":{"baseColorFactor":[0.6125001,0.6125001,0.6125001,1.0],"metallicFactor":0.0,"roughnessFactor":0.9},"emissiveFactor":[0.0,0.0,0.0],"alphaMode":"OPAQUE","name":"瓷砖345"}],"textures":[{"sampler":0,"source":0,"name":"楼梯窗户.jpg"},{"sampler":0,"source":1,"name":"5fwall~1.jpg"},{"sampler":0,"source":2,"name":"三楼电梯旁玻璃.jpg"}],"images":[{"uri":"%E6%A5%BC%E6%A2%AF%E7%AA%97%E6%88%B7.jpg"},{"uri":"5fwall~1.jpg"},{"uri":"%E4%B8%89%E6%A5%BC%E7%94%B5%E6%A2%AF%E6%97%81%E7%8E%BB%E7%92%83.jpg"}],"samplers":[{"magFilter":9729,"minFilter":9987,"wrapS":10497,"wrapT":10497}]}