{"asset":{"version":"2.0","generator":"babylon.js glTF exporter for 3ds max 2019 v1.3.33"},"scene":0,"scenes":[{"nodes":[0,1,2,3],"extensions":{}}],"nodes":[{"mesh":0,"translation":[0.06719208,0.0,0.0956247151],"rotation":[0.0,0.0,0.0,1.0],"scale":[1.0,1.0,1.0],"name":"library"},{"mesh":1,"translation":[0.06719208,37.0595436,0.0956247151],"rotation":[0.0,0.0,0.0,1.0],"scale":[1.0,1.0,1.0],"name":"library001"},{"mesh":2,"translation":[0.8543129,81.02384,0.00737762451],"rotation":[0.0,0.0,0.0,1.0],"scale":[1.0,1.0,1.0],"name":"Plane1095"},{"translation":[0.0,0.0,0.0],"rotation":[0.0,0.0,0.0,1.0],"scale":[1.0,1.0,1.0],"name":"Default light"}],"meshes":[{"primitives":[{"attributes":{"POSITION":1,"NORMAL":2,"TEXCOORD_0":3},"indices":0,"mode":4,"material":0}],"name":"library"},{"primitives":[{"attributes":{"POSITION":5,"NORMAL":6,"TEXCOORD_0":7},"indices":4,"mode":4,"material":1}],"name":"library001"},{"primitives":[{"attributes":{"POSITION":9,"NORMAL":10,"TEXCOORD_0":11},"indices":8,"mode":4,"material":2}],"name":"Plane1095"}],"accessors":[{"bufferView":0,"componentType":5123,"count":234,"type":"SCALAR","name":"accessorIndices"},{"bufferView":1,"componentType":5126,"count":234,"max":[153.054688,37.0595436,97.19934],"min":[-152.684082,-8.328551E-16,-97.39142],"type":"VEC3","name":"accessorPositions"},{"bufferView":1,"byteOffset":2808,"componentType":5126,"count":234,"type":"VEC3","name":"accessorNormals"},{"bufferView":2,"componentType":5126,"count":234,"type":"VEC2","name":"accessorUVs"},{"bufferView":0,"byteOffset":468,"componentType":5123,"count":192,"type":"SCALAR","name":"accessorIndices"},{"bufferView":1,"byteOffset":5616,"componentType":5126,"count":192,"max":[143.1564,43.9643,85.50699],"min":[-143.212189,-13.0677872,-86.0377655],"type":"VEC3","name":"accessorPositions"},{"bufferView":1,"byteOffset":7920,"componentType":5126,"count":192,"type":"VEC3","name":"accessorNormals"},{"bufferView":2,"byteOffset":1872,"componentType":5126,"count":192,"type":"VEC2","name":"accessorUVs"},{"bufferView":0,"byteOffset":852,"componentType":5123,"count":426,"type":"SCALAR","name":"accessorIndices"},{"bufferView":1,"byteOffset":10224,"componentType":5126,"count":426,"max":[162.630264,3.0,103.878937],"min":[-163.814651,-57.0320854,-103.89048],"type":"VEC3","name":"accessorPositions"},{"bufferView":1,"byteOffset":15336,"componentType":5126,"count":426,"type":"VEC3","name":"accessorNormals"},{"bufferView":2,"byteOffset":3408,"componentType":5126,"count":426,"type":"VEC2","name":"accessorUVs"}],"bufferViews":[{"buffer":0,"byteLength":1704,"name":"bufferViewScalar"},{"buffer":0,"byteOffset":1704,"byteLength":20448,"byteStride":12,"name":"bufferViewFloatVec3"},{"buffer":0,"byteOffset":22152,"byteLength":6816,"byteStride":8,"name":"bufferViewFloatVec2"}],"buffers":[{"uri":"library.bin","byteLength":28968}],"materials":[{"pbrMetallicRoughness":{"baseColorFactor":[1.0,1.0,1.0,1.0],"baseColorTexture":{"index":0,"texCoord":0},"metallicFactor":0.0,"roughnessFactor":0.9},"emissiveFactor":[0.0,0.0,0.0],"alphaMode":"OPAQUE","name":"Material #2100438988"},{"pbrMetallicRoughness":{"baseColorFactor":[1.0,1.0,1.0,1.0],"baseColorTexture":{"index":1,"texCoord":0},"metallicFactor":0.0,"roughnessFactor":0.9},"emissiveFactor":[0.0,0.0,0.0],"alphaMode":"OPAQUE","name":"Material #2100438989"},{"pbrMetallicRoughness":{"baseColorFactor":[1.0,1.0,1.0,1.0],"baseColorTexture":{"index":2,"texCoord":0},"metallicFactor":0.0,"roughnessFactor":0.9},"emissiveFactor":[0.0,0.0,0.0],"alphaMode":"OPAQUE","name":"Material #2100438948"}],"textures":[{"sampler":0,"source":0,"name":"library1.jpg"},{"sampler":0,"source":1,"name":"library2.jpg"},{"sampler":0,"source":2,"name":"library3.jpg"}],"images":[{"uri":"library1.jpg"},{"uri":"library2.jpg"},{"uri":"library3.jpg"}],"samplers":[{"magFilter":9729,"minFilter":9987,"wrapS":10497,"wrapT":10497}]}